<?xml version="1.0" encoding="utf-8"?><svg width="16" height="16" fill="none" xmlns="http://www.w3.org/2000/svg" viewBox="0 0 16 16"><path d="M11.6 14.667A10.28 10.28 0 011.333 4.4 3.067 3.067 0 014.4 1.333c.172-.001.344.015.513.047.164.024.325.064.48.12a.667.667 0 01.434.5l.913 4a.667.667 0 01-.173.613c-.087.094-.094.1-.914.527A6.607 6.607 0 008.9 10.4c.433-.827.44-.833.533-.92a.667.667 0 01.614-.173l4 .913a.667.667 0 01.48.433 2.89 2.89 0 01.166.994 3.067 3.067 0 01-3.093 3.02zm-7.2-12A1.74 1.74 0 002.667 4.4a8.94 8.94 0 008.933 8.933 1.74 1.74 0 001.733-1.733v-.22l-3.093-.713-.193.366c-.3.58-.52 1-1.08.774A7.9 7.9 0 014.18 7c-.24-.52.213-.76.787-1.06l.366-.18-.713-3.093H4.4z" fill="#969696"/></svg>