<svg width="24" height="18" viewBox="0 0 24 18" fill="none" xmlns="http://www.w3.org/2000/svg">
<path d="M23.0645 2.0046C22.1982 0.974765 20.5987 0.554688 17.5441 0.554688H6.45569C3.33112 0.554688 1.70454 1.00186 0.841471 2.09828C0 3.16728 0 4.74238 0 6.92235V11.0774C0 15.3007 0.9984 17.445 6.45569 17.445H17.5442C20.1931 17.445 21.661 17.0743 22.6106 16.1655C23.5845 15.2335 24 13.7118 24 11.0774V6.92235C24 4.62338 23.9349 3.039 23.0645 2.0046ZM15.4081 9.5735L10.3729 12.2051C10.2603 12.2639 10.1372 12.2931 10.0143 12.2931C9.87507 12.2931 9.73618 12.2556 9.61316 12.1811C9.38152 12.0408 9.24008 11.7897 9.24008 11.5189V6.27265C9.24008 6.0023 9.38113 5.75146 9.61231 5.61102C9.84356 5.47058 10.1312 5.46098 10.3711 5.58563L15.4063 8.20024C15.6625 8.33324 15.8234 8.59771 15.8237 8.88625C15.8241 9.17502 15.6639 9.43988 15.4081 9.5735Z" fill="white"/>
</svg>
