<svg width="24" height="25" viewBox="0 0 24 25" fill="none" xmlns="http://www.w3.org/2000/svg">
<path d="M15.6832 23.777L12.5002 20.617L9.31823 23.777C8.99869 24.0928 8.56752 24.2699 8.11823 24.2699C7.66894 24.2699 7.23776 24.0928 6.91823 23.777C6.7608 23.621 6.63582 23.4354 6.55054 23.2309C6.46525 23.0264 6.42134 22.807 6.42134 22.5855C6.42134 22.3639 6.46525 22.1445 6.55054 21.94C6.63582 21.7355 6.7608 21.5499 6.91823 21.394L10.1562 18.179C8.96564 17.9092 7.82882 17.4414 6.79323 16.795C6.60494 16.6781 6.44167 16.5251 6.31287 16.3448C6.18407 16.1645 6.09228 15.9604 6.04281 15.7444C5.99334 15.5284 5.98717 15.3047 6.02466 15.0863C6.06215 14.8679 6.14256 14.6591 6.26123 14.472C6.50186 14.0924 6.88302 13.8235 7.32134 13.7242C7.75966 13.6249 8.21948 13.7032 8.60023 13.942C9.77141 14.6682 11.1221 15.0531 12.5002 15.0531C13.8783 15.0531 15.2291 14.6682 16.4002 13.942C16.7811 13.7029 17.2411 13.6244 17.6797 13.7237C18.1182 13.823 18.4996 14.0921 18.7402 14.472C18.8589 14.6591 18.9393 14.8679 18.9768 15.0863C19.0143 15.3047 19.0081 15.5284 18.9586 15.7444C18.9092 15.9604 18.8174 16.1645 18.6886 16.3448C18.5598 16.5251 18.3965 16.6781 18.2082 16.795C17.1728 17.4414 16.0359 17.909 14.8452 18.178L18.0832 21.393C18.2408 21.5488 18.3659 21.7344 18.4512 21.9389C18.5366 22.1434 18.5805 22.3628 18.5805 22.5845C18.5805 22.8061 18.5366 23.0255 18.4512 23.23C18.3659 23.4345 18.2408 23.6201 18.0832 23.776C17.7646 24.0935 17.3331 24.2718 16.8832 24.2718C16.4334 24.2718 16.0019 24.0935 15.6832 23.776V23.777ZM6.69323 7.73495C6.68451 6.58733 7.01687 5.46298 7.64813 4.50453C8.2794 3.54608 9.18112 2.79674 10.2389 2.35155C11.2967 1.90637 12.4629 1.78541 13.5895 2.00402C14.7162 2.22263 15.7525 2.77096 16.567 3.57945C17.3816 4.38794 17.9376 5.42014 18.1646 6.54513C18.3916 7.67011 18.2793 8.83717 17.8421 9.89825C17.4048 10.9593 16.6622 11.8666 15.7084 12.505C14.7547 13.1434 13.6329 13.4841 12.4852 13.484C10.9555 13.4874 9.48676 12.8842 8.40103 11.8065C7.31531 10.7289 6.70117 9.26469 6.69323 7.73495ZM10.0872 7.73495C10.0833 8.21046 10.2206 8.67643 10.4819 9.07373C10.7432 9.47103 11.1167 9.78175 11.5548 9.96647C11.993 10.1512 12.4762 10.2016 12.9431 10.1112C13.4099 10.0209 13.8394 9.79393 14.1771 9.45909C14.5147 9.12426 14.7453 8.69667 14.8395 8.23057C14.9338 7.76448 14.8874 7.2809 14.7064 6.84119C14.5253 6.40148 14.2178 6.02547 13.8227 5.76086C13.4276 5.49625 12.9628 5.35497 12.4872 5.35495C11.8536 5.35309 11.2451 5.6026 10.7952 6.04877C10.3453 6.49494 10.0907 7.10133 10.0872 7.73495Z" fill="white"/>
</svg>
