<svg width="24" height="25" viewBox="0 0 24 25" fill="none" xmlns="http://www.w3.org/2000/svg">
<path d="M13.1772 19.368C13.4185 19.341 13.6464 19.2433 13.8322 19.087C13.9649 18.9081 14.0352 18.6906 14.0322 18.468C14.0322 18.468 14.0002 16.584 14.8942 16.301C15.7882 16.018 16.9052 18.127 18.1042 18.935C18.5574 19.2873 19.126 19.4574 19.6982 19.412L22.9042 19.368C22.9042 19.368 24.5802 19.268 23.7862 17.968C23.1513 16.9374 22.3442 16.0235 21.4002 15.266C19.3892 13.435 19.6592 13.731 22.0802 10.566C23.5542 8.63695 24.1442 7.45996 23.9592 6.95596C23.7872 6.47196 22.7002 6.59996 22.7002 6.59996L19.0942 6.62196C18.9343 6.60342 18.7725 6.63155 18.6282 6.70296C18.4916 6.80081 18.3819 6.9315 18.3092 7.08296C17.9354 8.03587 17.4902 8.95917 16.9772 9.84496C15.3702 12.523 14.7282 12.665 14.4652 12.499C13.8532 12.111 14.0062 10.941 14.0062 10.11C14.0062 7.50995 14.4062 6.43196 13.2252 6.15196C12.674 6.02016 12.1075 5.96364 11.5412 5.98396C10.5329 5.89203 9.51626 5.99386 8.54619 6.28396C8.13519 6.48396 7.81819 6.92096 8.01219 6.94696C8.42055 6.98193 8.80076 7.16936 9.07719 7.47196C9.32627 7.9677 9.44891 8.51735 9.43419 9.07196C9.43419 9.07196 9.64619 12.128 8.93419 12.507C8.44819 12.767 7.78119 12.236 6.34819 9.80696C5.86237 8.96255 5.43212 8.08736 5.06019 7.18696C4.99369 7.03151 4.8908 6.89432 4.76019 6.78696C4.59283 6.68164 4.40622 6.6106 4.21119 6.57796L0.782193 6.59996C0.782193 6.59996 0.267193 6.61396 0.0781927 6.83396C-0.0898072 7.02896 0.0651927 7.43396 0.0651927 7.43396C0.0651927 7.43396 2.75019 13.599 5.79019 16.706C6.55209 17.5276 7.47211 18.187 8.49506 18.6444C9.51801 19.1018 10.6228 19.3479 11.7432 19.368H13.1772Z" fill="white"/>
</svg>
