<svg width="24" height="25" viewBox="0 0 24 25" fill="none" xmlns="http://www.w3.org/2000/svg">
<g opacity="0.8">
<path opacity="0.8" d="M11.9679 24.979C10.4057 24.982 8.85873 24.6726 7.41788 24.069C5.95827 23.4547 4.63328 22.5602 3.51788 21.436C2.39834 20.3253 1.50871 19.0048 0.899875 17.55C-0.302762 14.6245 -0.299167 11.3419 0.909875 8.41901C1.52344 6.94748 2.42202 5.61185 3.55388 4.48901C4.64054 3.35945 5.94879 2.46651 7.39664 1.86613C8.8445 1.26576 10.4007 0.97089 11.9679 1.00001C13.5586 0.975151 15.1378 1.27362 16.6098 1.87731C18.0817 2.48101 19.4157 3.37736 20.5309 4.51201C21.6392 5.61346 22.5131 6.92785 23.0999 8.37601C23.6871 9.84308 23.9852 11.4098 23.9779 12.99C23.988 14.5691 23.6936 16.1353 23.1109 17.603C22.5329 19.0347 21.6612 20.3292 20.5519 21.403C19.4098 22.5382 18.0572 23.4397 16.5699 24.057C15.1115 24.6643 13.5476 24.9776 11.9679 24.979ZM12.0099 3.16201C10.7225 3.13751 9.44391 3.37976 8.25469 3.87352C7.06547 4.36728 5.99133 5.10185 5.09988 6.03101C4.17727 6.95812 3.43829 8.05133 2.92188 9.25301C2.42064 10.4311 2.1623 11.6982 2.1623 12.9785C2.1623 14.2588 2.42064 15.5259 2.92188 16.704C3.95669 19.1051 5.87764 21.0146 8.28487 22.035C9.46812 22.5247 10.7364 22.7757 12.017 22.7739C13.2975 22.772 14.5651 22.5171 15.7469 22.024C16.9619 21.5165 18.0696 20.7828 19.0109 19.862C19.9268 18.972 20.6485 17.9019 21.1304 16.7192C21.6123 15.5364 21.844 14.2667 21.8109 12.99C21.8168 11.6986 21.5698 10.4185 21.0839 9.22201C20.5956 8.03511 19.8752 6.95769 18.9649 6.05301C18.0629 5.12373 16.981 4.38808 15.7852 3.89102C14.5894 3.39395 13.3048 3.1459 12.0099 3.16201ZM15.6709 16.715C15.1933 16.7364 14.7163 16.6601 14.2693 16.4908C13.8222 16.3214 13.4144 16.0625 13.0709 15.73C12.7338 15.3614 12.4739 14.9291 12.3065 14.4586C12.139 13.988 12.0674 13.4887 12.0959 12.99C12.0717 12.4929 12.1477 11.996 12.3195 11.5289C12.4913 11.0618 12.7553 10.634 13.0959 10.271C13.4239 9.93981 13.8165 9.6796 14.2493 9.50654C14.6822 9.33348 15.1459 9.25127 15.6119 9.26501C16.2504 9.21941 16.8885 9.3588 17.4498 9.66651C18.0112 9.97422 18.4719 10.4372 18.7769 11L17.1929 11.835C17.0626 11.5267 16.8419 11.2652 16.5599 11.085C16.3434 10.953 16.0963 10.8796 15.8429 10.872C14.7779 10.872 14.2429 11.585 14.2429 12.992C14.2161 13.5354 14.3583 14.0737 14.6499 14.533C14.7844 14.7234 14.9651 14.8764 15.175 14.9777C15.3849 15.079 15.6172 15.1252 15.8499 15.112C16.1741 15.1225 16.493 15.0282 16.7593 14.843C17.0255 14.6578 17.225 14.3916 17.3279 14.084L18.8279 14.833C18.5142 15.4019 18.0566 15.8785 17.5009 16.215C16.9494 16.5481 16.3161 16.7212 15.6719 16.715H15.6709ZM8.73487 16.715C8.25896 16.7348 7.78399 16.6577 7.33878 16.4883C6.89357 16.319 6.48739 16.061 6.14488 15.73C5.80488 15.363 5.54241 14.9312 5.37316 14.4604C5.20392 13.9896 5.13137 13.4895 5.15988 12.99C5.13583 12.4929 5.21196 11.996 5.38375 11.529C5.55554 11.0619 5.81948 10.6341 6.15988 10.271C6.48731 9.94044 6.87911 9.68059 7.31102 9.50755C7.74294 9.33451 8.20577 9.25196 8.67087 9.26501C9.31261 9.22045 9.95373 9.36006 10.5188 9.66741C11.0839 9.97477 11.5495 10.4371 11.8609 11L10.2549 11.835C10.1243 11.5272 9.90407 11.2659 9.62288 11.085C9.41196 10.9545 9.17073 10.8811 8.92288 10.872C7.85788 10.872 7.31688 11.585 7.31688 12.992C7.29041 13.5354 7.43257 14.0736 7.72388 14.533C7.85836 14.7234 8.03907 14.8764 8.249 14.9777C8.45892 15.079 8.69116 15.1252 8.92387 15.112C9.248 15.1221 9.56674 15.0273 9.83267 14.8418C10.0986 14.6562 10.2975 14.3897 10.3999 14.082L11.8779 14.831C11.5764 15.4034 11.1234 15.882 10.5685 16.2144C10.0135 16.5468 9.3778 16.7204 8.73088 16.716L8.73487 16.715Z" fill="#DDE1E6"/>
</g>
</svg>
