<svg width="24" height="25" viewBox="0 0 24 25" fill="none" xmlns="http://www.w3.org/2000/svg">
<path d="M20.526 6.82989C21.4382 6.24661 22.1101 5.35463 22.419 4.31689C21.5794 4.84287 20.653 5.21534 19.683 5.41689C19.2908 4.96842 18.8075 4.60867 18.2654 4.36158C17.7233 4.11449 17.1348 3.98573 16.539 3.98389C15.3655 4.01608 14.2528 4.51271 13.4453 5.36471C12.6377 6.2167 12.2014 7.35439 12.232 8.52789C12.2307 8.87587 12.2676 9.22295 12.342 9.56289C10.6067 9.45986 8.91441 8.98208 7.38146 8.16243C5.84851 7.34279 4.51135 6.20074 3.462 4.81489C3.07762 5.51502 2.87704 6.30118 2.879 7.09989C2.87319 7.83828 3.04461 8.5673 3.37888 9.22573C3.71314 9.88416 4.20048 10.4528 4.8 10.8839C4.11054 10.8597 3.43796 10.6641 2.843 10.3149V10.3709C2.82352 11.3967 3.15593 12.3982 3.78491 13.2088C4.4139 14.0193 5.3015 14.59 6.3 14.8259C5.93086 14.9327 5.54828 14.9859 5.164 14.9839C4.89197 14.9842 4.6206 14.957 4.354 14.9029C4.60503 15.7867 5.12975 16.5681 5.85275 17.135C6.57576 17.7019 7.45985 18.025 8.378 18.0579C6.87667 19.312 4.98324 20.0003 3.027 20.0029C2.68374 20.0046 2.34073 19.9845 2 19.9429C3.9457 21.2694 6.24516 21.9805 8.6 21.9839C16.526 21.9839 20.857 15.0599 20.857 9.05489C20.857 8.85489 20.857 8.66089 20.846 8.46689C21.6982 7.81728 22.4276 7.02079 23 6.11489C22.2178 6.48115 21.383 6.72241 20.526 6.82989Z" fill="white"/>
</svg>
