<svg width="48" height="48" viewBox="0 0 48 48" fill="none" xmlns="http://www.w3.org/2000/svg">
<path d="M23.9391 48C23.7641 47.922 22.2251 47.206 22.2251 46.185C22.347 44.4282 22.7041 42.6957 23.2871 41.034C23.2731 40.839 23.2511 40.634 23.2231 40.434C21.7876 42.0747 20.9548 44.156 20.8621 46.334C20.8608 46.3519 20.8527 46.3686 20.8395 46.3806C20.8263 46.3927 20.809 46.3993 20.7911 46.399H20.7721C20.2909 46.2622 19.8543 46.0011 19.5061 45.642C19.3287 45.4802 19.195 45.2762 19.1174 45.0489C19.0397 44.8217 19.0207 44.5785 19.0621 44.342C19.3406 43.3256 19.8359 42.3815 20.514 41.5746C21.192 40.7678 22.0368 40.1174 22.9901 39.668L22.9081 39.445L22.8561 39.305C21.7283 39.6481 20.696 40.2493 19.8411 41.061C18.7309 42.0081 17.9538 43.2864 17.6241 44.708C17.6222 44.7172 17.6185 44.7259 17.6132 44.7337C17.6078 44.7414 17.601 44.748 17.5931 44.753C17.5819 44.7607 17.5686 44.7645 17.5551 44.764H17.5391C17.2319 44.7 16.9412 44.5736 16.6849 44.3927C16.4286 44.2117 16.2122 43.98 16.0491 43.712C15.9614 43.5781 15.9035 43.4269 15.8794 43.2687C15.8552 43.1105 15.8654 42.949 15.9091 42.795C16.4647 41.6591 17.3658 40.7283 18.4831 40.136C19.7407 39.3728 21.106 38.8031 22.5331 38.446C22.2108 37.318 21.5249 36.3281 20.5821 35.63C20.24 35.3987 19.8389 35.2699 19.4261 35.259C19.1877 35.2534 18.9517 35.3076 18.7397 35.4166C18.5276 35.5256 18.3463 35.6859 18.2121 35.883C18.058 36.1437 17.971 36.4386 17.9587 36.7412C17.9465 37.0438 18.0095 37.3447 18.1421 37.617C18.1665 37.6695 18.1774 37.7274 18.1737 37.7852C18.17 37.843 18.1519 37.899 18.1211 37.948C18.0878 37.9945 18.0433 38.0319 17.9917 38.0567C17.9402 38.0815 17.8832 38.093 17.8261 38.09C16.2238 38.0834 14.6498 38.512 13.2721 39.33L13.2991 39.355L13.3101 39.365L13.3441 39.397L13.4261 39.474L13.6451 39.679C14.0681 40.073 14.5311 40.508 14.5451 40.522C14.5935 40.5639 14.6331 40.6151 14.6615 40.6724C14.69 40.7298 14.7069 40.7922 14.711 40.8561C14.7152 40.92 14.7067 40.9841 14.6859 41.0447C14.6652 41.1053 14.6326 41.1611 14.5901 41.209C14.5408 41.2652 14.4809 41.3111 14.4138 41.344C14.3467 41.377 14.2737 41.3964 14.1991 41.401H14.1601C14.0155 41.4003 13.8765 41.3449 13.7711 41.246L12.5221 40.081C12.2364 40.2484 11.9112 40.3364 11.5801 40.336C11.4495 40.3357 11.3192 40.3227 11.1911 40.297C10.8552 40.2337 10.546 40.071 10.3037 39.8299C10.0614 39.5889 9.8971 39.2806 9.83208 38.945C9.76328 38.5463 9.85221 38.1364 10.0801 37.802L9.95708 37.686L9.68108 37.423L9.62008 37.366C6.62908 34.52 5.34508 33.294 5.32008 33.266L5.09808 33.374C4.97759 33.4475 4.83924 33.4866 4.69808 33.487C4.59003 33.4874 4.48296 33.4664 4.38307 33.4252C4.28317 33.384 4.19243 33.3235 4.11608 33.247C4.08695 33.2192 4.0637 33.1859 4.04773 33.149C4.03175 33.112 4.02337 33.0722 4.02308 33.032C3.81108 33.1773 3.55663 33.2477 3.30008 33.232C2.88541 33.232 2.48317 33.0904 2.15987 32.8308C1.83657 32.5711 1.61157 32.2089 1.52208 31.804C1.64708 31.815 1.84908 31.821 2.10708 31.821C2.32608 31.821 2.51808 31.821 2.53708 31.821C2.45708 31.689 1.76808 30.51 2.31308 29.861C2.51386 29.6856 2.77482 29.5949 3.04108 29.608C3.48263 29.6342 3.91353 29.7542 4.30508 29.96C4.30508 29.96 4.30508 29.96 4.30508 29.948V29.936C4.28608 29.491 4.26008 29.153 4.23108 28.96C4.56016 29.0088 4.86974 29.1463 5.1266 29.3577C5.38346 29.5691 5.57791 29.8464 5.68908 30.16C5.76735 30.3524 5.80228 30.5596 5.79139 30.767C5.78051 30.9744 5.72406 31.1769 5.62608 31.36H5.65208C5.72902 31.373 5.8017 31.4044 5.864 31.4513C5.92631 31.4983 5.9764 31.5596 6.01008 31.63C6.08191 31.7459 6.12227 31.8785 6.12718 32.0148C6.13209 32.151 6.10138 32.2862 6.03808 32.407L6.00208 32.482C6.05408 32.508 7.84108 34.197 10.9021 37.113L10.9301 37.139C11.1391 37.0616 11.3602 37.022 11.5831 37.022C11.8286 37.0211 12.0718 37.0696 12.2983 37.1646C12.5247 37.2596 12.7297 37.3992 12.9011 37.575C13.0482 37.5916 13.1961 37.5996 13.3441 37.599C14.5601 37.599 16.3381 37.181 16.5151 36.853C16.5246 36.8381 16.5297 36.8207 16.5297 36.803C16.5297 36.7853 16.5246 36.7679 16.5151 36.753C15.2281 34.932 14.8661 33.259 15.4961 32.043C15.7686 31.5659 16.1684 31.1741 16.6509 30.9113C17.1334 30.6485 17.6795 30.5252 18.2281 30.555C18.2811 30.555 18.3421 30.555 18.4281 30.56V33.222C18.4432 33.6462 18.6257 34.0472 18.9356 34.3373C19.2456 34.6274 19.6578 34.783 20.0821 34.77H21.8601C22.2844 34.8168 22.6932 34.9566 23.0573 35.1796C23.4213 35.4026 23.7316 35.7032 23.9661 36.06C24.1997 35.7041 24.5091 35.4042 24.8722 35.1817C25.2352 34.9592 25.6429 34.8196 26.0661 34.773H27.8441C28.055 34.7799 28.2652 34.7452 28.4627 34.6709C28.6603 34.5965 28.8412 34.484 28.9952 34.3396C29.1491 34.1953 29.2732 34.0221 29.3602 33.8298C29.4471 33.6375 29.4954 33.4299 29.5021 33.219V30.558C29.5731 30.558 29.6361 30.553 29.7021 30.553C30.2504 30.523 30.7963 30.6462 31.2787 30.9088C31.761 31.1715 32.1607 31.5631 32.4331 32.04C33.0631 33.256 32.7021 34.93 31.4141 36.751C31.4041 36.7669 31.3989 36.7853 31.3989 36.804C31.3989 36.8227 31.4041 36.8411 31.4141 36.857C31.5931 37.189 33.3601 37.589 34.3351 37.589C34.4437 37.5896 34.5523 37.5829 34.6601 37.569C34.8433 36.8718 35.2953 36.2757 35.9171 35.911L37.4761 37.145L39.0351 35.911C39.4868 36.1679 39.8531 36.5518 40.0885 37.0151C40.3239 37.4784 40.418 38.0007 40.3591 38.517C40.2618 39.1451 39.9555 39.7221 39.4897 40.1545C39.0238 40.587 38.4257 40.8496 37.7921 40.9C37.6811 40.91 37.5761 40.916 37.4781 40.916C36.993 40.921 36.5143 40.8056 36.0848 40.5802C35.6552 40.3547 35.2884 40.0261 35.0171 39.624C33.5904 38.589 31.8642 38.0495 30.1021 38.088C30.045 38.0911 29.9881 38.0798 29.9366 38.0552C29.885 38.0305 29.8405 37.9933 29.8071 37.947C29.7763 37.8977 29.7583 37.8416 29.7546 37.7837C29.7509 37.7257 29.7618 37.6677 29.7861 37.615C29.9186 37.3427 29.9816 37.0418 29.9694 36.7392C29.9572 36.4366 29.8702 36.1417 29.7161 35.881C29.5819 35.6842 29.4007 35.5241 29.1888 35.4152C28.9769 35.3064 28.7412 35.2524 28.5031 35.258C28.0903 35.2689 27.6892 35.3977 27.3471 35.629C26.4071 36.3282 25.7236 37.3175 25.4021 38.444C26.8295 38.801 28.1951 39.3707 29.4531 40.134C30.57 40.7261 31.4704 41.6571 32.0251 42.793C32.0688 42.9467 32.0791 43.1079 32.0553 43.2659C32.0315 43.424 31.9741 43.575 31.8871 43.709C31.7238 43.9771 31.5073 44.2089 31.2511 44.3901C30.9949 44.5714 30.7042 44.6983 30.3971 44.763H30.3821C30.3657 44.7631 30.3499 44.7576 30.3371 44.7474C30.3244 44.7372 30.3155 44.723 30.3121 44.707C29.9808 43.2854 29.2027 42.0072 28.0921 41.06C27.2373 40.2473 26.205 39.6448 25.0771 39.3L25.0021 39.5L24.9911 39.528L24.9421 39.663C25.8956 40.1122 26.7405 40.7626 27.4187 41.5695C28.097 42.3763 28.5924 43.3205 28.8711 44.337C28.9121 44.5736 28.8929 44.8168 28.8151 45.044C28.7373 45.2712 28.6035 45.4752 28.4261 45.637C28.0774 45.996 27.6404 46.257 27.1591 46.394H27.1411C27.1264 46.3939 27.1121 46.3894 27.1001 46.381C27.0916 46.375 27.0846 46.3673 27.0794 46.3583C27.0742 46.3493 27.071 46.3393 27.0701 46.329C26.9775 44.1511 26.145 42.0699 24.7101 40.429C24.6821 40.629 24.6591 40.829 24.6451 41.029C25.2282 42.6922 25.5838 44.4265 25.7021 46.185C25.7021 47.157 24.2861 47.874 23.9351 48H23.9391ZM37.7151 35.809L36.5721 34.741L37.7151 33.524L38.8581 34.741L37.7161 35.809H37.7151ZM24.1781 34.286C23.3675 34.3299 22.5698 34.0688 21.9421 33.554C21.8342 33.5978 21.7185 33.6189 21.6021 33.616C21.3603 33.6182 21.1233 33.5486 20.9211 33.416C20.8111 33.342 20.7215 33.2414 20.6606 33.1236C20.5998 33.0058 20.5697 32.8745 20.5731 32.742C20.585 32.5058 20.6536 32.276 20.7731 32.072C20.8141 32.011 20.8551 31.978 20.8901 31.978C20.8983 31.9781 20.9064 31.9801 20.9137 31.9839C20.921 31.9878 20.9273 31.9933 20.9321 32C20.9438 32.0214 20.9509 32.045 20.953 32.0692C20.955 32.0935 20.952 32.118 20.9441 32.141C20.8981 32.317 20.9021 32.432 20.9551 32.502C21.0081 32.572 21.0981 32.596 21.2741 32.602C21.2688 31.7613 21.4969 30.9357 21.9331 30.217C21.9832 30.1459 22.0139 30.0629 22.0222 29.9762C22.0304 29.8896 22.0159 29.8023 21.9801 29.723C21.8847 29.4862 21.8564 29.2278 21.8981 28.976C21.7661 28.976 21.7331 29.139 21.6921 29.345C21.6241 29.679 21.5401 30.095 21.0051 30.095C21.1051 29.9633 21.1547 29.8002 21.1449 29.6352C21.1352 29.4702 21.0668 29.314 20.9521 29.195C20.6591 28.79 20.6581 28.418 20.9521 28.195C21.0612 28.1229 21.1905 28.0879 21.3211 28.095C21.6555 28.1084 21.9744 28.2399 22.2211 28.466C22.4914 28.2775 22.8125 28.1754 23.1421 28.173C23.0879 28.1168 23.0487 28.0479 23.028 27.9726C23.0074 27.8973 23.0061 27.818 23.0241 27.742C22.9731 27.742 22.9321 27.742 22.9021 27.742C22.4847 27.7331 22.0746 27.6306 21.7021 27.442C21.2821 27.223 21.0501 26.942 21.0501 26.642C21.0501 26.123 21.9301 25.723 22.4851 25.593L21.8421 23.832C21.833 23.8085 21.8297 23.7831 21.8325 23.758C21.8353 23.733 21.844 23.709 21.8581 23.688C21.8751 23.6654 21.898 23.6479 21.9243 23.6374C21.9506 23.6269 21.9793 23.6238 22.0072 23.6284C22.0351 23.6331 22.0613 23.6453 22.0827 23.6637C22.1042 23.6821 22.1202 23.7061 22.1291 23.733L25.9021 33.969C25.3547 34.1901 24.7683 34.2979 24.1781 34.286ZM22.5401 30.476C22.0541 31.076 21.2531 32.159 21.3401 32.761C21.7656 32.4784 22.2698 32.3384 22.7801 32.361C22.4651 31.7855 22.3794 31.1121 22.5401 30.476ZM25.8541 33.523L22.8541 25.247C23.0387 25.2098 23.2267 25.1921 23.4151 25.194C23.4933 25.1924 23.5715 25.1968 23.6491 25.207C23.6007 25.1241 23.5748 25.03 23.5741 24.934C23.5685 24.8629 23.5778 24.7915 23.6014 24.7242C23.625 24.6569 23.6624 24.5953 23.7111 24.5433C23.7599 24.4912 23.8189 24.4499 23.8845 24.422C23.9501 24.394 24.0208 24.3801 24.0921 24.381C24.143 24.3768 24.1942 24.3829 24.2427 24.399C24.2912 24.4151 24.336 24.4408 24.3743 24.4746C24.4125 24.5084 24.4436 24.5496 24.4656 24.5957C24.4875 24.6419 24.5 24.692 24.5021 24.743C24.4759 24.9322 24.3764 25.1035 24.2251 25.22C24.2 25.2347 24.1782 25.2543 24.161 25.2777C24.1438 25.3011 24.1316 25.3277 24.1251 25.356C24.1201 25.406 24.1461 25.456 24.2121 25.54C24.373 25.7167 24.5025 25.9197 24.5951 26.14C24.7642 25.9616 24.9691 25.8212 25.1965 25.7279C25.4239 25.6347 25.6685 25.5907 25.9141 25.599C26.1228 25.5876 26.3299 25.641 26.5071 25.752C26.6089 25.8258 26.6937 25.9206 26.7558 26.03C26.8179 26.1393 26.8559 26.2607 26.8671 26.386C26.881 26.588 26.8541 26.7908 26.7879 26.9822C26.7218 27.1736 26.6178 27.3497 26.4821 27.5C26.3671 27.63 26.2821 27.694 26.2091 27.694C26.1824 27.6945 26.1559 27.6894 26.1313 27.6791C26.1066 27.6687 26.0844 27.6534 26.0661 27.634C26.0411 27.5998 26.0231 27.561 26.0134 27.5198C26.0036 27.4785 26.0021 27.4358 26.0091 27.394C26.0091 27.368 26.0091 27.338 26.0171 27.306C26.0351 27.106 26.0631 26.812 25.9811 26.723C25.9737 26.7147 25.9646 26.708 25.9544 26.7035C25.9442 26.699 25.9332 26.6968 25.9221 26.697C25.887 26.6958 25.8522 26.7032 25.8206 26.7185C25.7891 26.7339 25.7618 26.7567 25.7411 26.785C25.6387 27.0101 25.6255 27.2656 25.7041 27.5C25.7601 27.705 25.8121 27.913 25.8691 28.145L25.8801 28.188L25.8911 28.231C25.9201 28.348 25.9501 28.467 25.9811 28.591C26.0905 28.5727 26.2012 28.5634 26.3121 28.563C26.4743 28.5527 26.6367 28.5779 26.7882 28.6367C26.9397 28.6956 27.0765 28.7868 27.1891 28.904C27.2999 29.0513 27.3773 29.2211 27.4158 29.4014C27.4543 29.5817 27.453 29.7682 27.4121 29.948C27.4108 29.9838 27.3957 30.0178 27.37 30.0427C27.3443 30.0677 27.3099 30.0818 27.2741 30.082C27.2584 30.0823 27.2427 30.0795 27.2281 30.0737C27.2135 30.0678 27.2002 30.0591 27.1891 30.048C27.1769 30.0346 27.1678 30.0187 27.1623 30.0015C27.1567 29.9842 27.155 29.966 27.1571 29.948C27.1652 29.8471 27.1523 29.7456 27.1193 29.6499C27.0863 29.5542 27.0337 29.4664 26.9651 29.392C26.8711 29.3051 26.7609 29.2377 26.6407 29.1936C26.5206 29.1495 26.3929 29.1296 26.2651 29.135C26.1137 29.1349 25.9634 29.1613 25.8211 29.213C25.6541 29.275 25.5641 29.349 25.6001 29.542C25.6941 30.042 25.7821 30.527 25.8751 31.042V31.064V31.087V31.101L25.9271 31.389L25.9481 31.503L25.9951 31.764C26.2376 31.5 26.5716 31.3384 26.9291 31.312C26.9822 31.3043 27.0365 31.3087 27.0877 31.3248C27.1389 31.341 27.1859 31.3685 27.225 31.4053C27.2641 31.4421 27.2944 31.4873 27.3136 31.5375C27.3329 31.5876 27.3405 31.6415 27.3361 31.695C27.2781 32.1056 27.1091 32.4925 26.8472 32.814C26.5853 33.1355 26.2405 33.3793 25.8501 33.519L25.8541 33.523ZM36.7741 32C36.3668 31.9964 35.9652 31.9052 35.5963 31.7326C35.2274 31.5601 34.8999 31.3102 34.6361 31C33.8095 29.8136 33.296 28.4378 33.1431 27C32.4589 26.9741 31.7822 27.1499 31.1971 27.5055C30.6119 27.8611 30.1442 28.3808 29.8521 29C29.8472 29.0132 29.8384 29.0246 29.8267 29.0325C29.815 29.0404 29.8012 29.0444 29.7871 29.044C29.7692 29.0438 29.7519 29.0374 29.7381 29.026C29.7309 29.0203 29.7252 29.0129 29.7214 29.0046C29.7176 28.9963 29.7158 28.9872 29.7161 28.978V24.456C29.7163 24.4471 29.7184 24.4383 29.722 24.4301C29.7257 24.422 29.7309 24.4146 29.7374 24.4085C29.7439 24.4024 29.7515 24.3976 29.7599 24.3944C29.7683 24.3912 29.7771 24.3897 29.7861 24.39C29.794 24.3887 29.8021 24.3887 29.8101 24.39C30.4363 24.597 31.0915 24.7034 31.7511 24.705C32.0459 24.7064 32.3401 24.6803 32.6301 24.627C33.3235 24.5242 33.9585 24.1805 34.4239 23.6563C34.8892 23.132 35.1552 22.4607 35.1751 21.76C35.1735 21.3648 35.0883 20.9745 34.9251 20.6146C34.7619 20.2548 34.5243 19.9335 34.2281 19.672C34.199 19.6469 34.1764 19.6152 34.1622 19.5796C34.1479 19.5439 34.1424 19.5054 34.1462 19.4672C34.1499 19.429 34.1627 19.3922 34.1836 19.36C34.2045 19.3278 34.2327 19.301 34.2661 19.282C34.3351 19.241 34.3901 19.206 34.4531 19.166C39.5301 15.933 44.1181 8.49 44.6251 7.652C44.6308 7.64313 44.6385 7.63566 44.6475 7.63013C44.6565 7.62459 44.6666 7.62113 44.6771 7.62H44.6881C44.7054 7.62006 44.7221 7.62646 44.7351 7.638C46.3541 9.064 46.3851 11.775 44.8071 13.81C43.1769 15.5505 41.2507 16.9878 39.1181 18.055C39.1511 18.3 39.1731 18.555 39.1861 18.8C42.3988 18.0534 45.3052 16.3393 47.5131 13.889C47.5197 13.8815 47.5279 13.8756 47.537 13.8716C47.5462 13.8676 47.5561 13.8657 47.5661 13.866C47.5794 13.8657 47.5925 13.8691 47.6039 13.8758C47.6154 13.8825 47.6248 13.8923 47.6311 13.904C48.0551 14.78 48.1169 15.7878 47.8031 16.709C47.5018 17.6527 46.8597 18.4502 46.0021 18.946C44.6201 19.717 42.4241 20.262 39.0911 20.662C39.0591 20.876 39.0191 21.092 38.9741 21.305C39.6307 21.3932 40.2925 21.4376 40.9551 21.438C43.2185 21.4451 45.4548 20.9456 47.5001 19.976C47.51 19.971 47.521 19.9686 47.5321 19.969C47.5491 19.9687 47.5657 19.9745 47.5789 19.9853C47.5921 19.9961 47.601 20.0112 47.6041 20.028C47.6642 20.4645 47.6348 20.9086 47.5178 21.3334C47.4007 21.7582 47.1985 22.1547 46.9234 22.4989C46.6483 22.843 46.306 23.1276 45.9174 23.3353C45.5289 23.543 45.1021 23.6695 44.6631 23.707C44.341 23.7551 44.0157 23.7779 43.6901 23.775C41.9115 23.69 40.1445 23.4423 38.4111 23.035C38.3221 23.235 38.2301 23.435 38.1381 23.603C40.1508 24.6013 42.3772 25.0922 44.6231 25.033C45.0661 25.033 45.3711 25.017 45.4811 25.01C45.5009 25.0101 45.52 25.018 45.5341 25.032C45.5462 25.0446 45.553 25.0615 45.5531 25.079C45.5021 27.22 43.3201 27.386 42.6531 27.386C42.4139 27.3851 42.1751 27.3687 41.9381 27.337C40.1752 26.9748 38.5188 26.2133 37.0961 25.111C36.9661 25.256 36.8151 25.411 36.6491 25.56C38.0021 27.779 41.1911 28.69 42.2021 28.771C42.214 28.7719 42.2256 28.7759 42.2355 28.7826C42.2455 28.7892 42.2536 28.7983 42.2591 28.809C42.2642 28.818 42.2668 28.8282 42.2668 28.8385C42.2668 28.8488 42.2642 28.859 42.2591 28.868C42.0375 29.2426 41.719 29.5505 41.3371 29.7593C40.9552 29.968 40.524 30.0698 40.0891 30.054C39.4949 30.0426 38.9109 29.8981 38.3801 29.631C37.1001 28.8677 36.0397 27.7859 35.3021 26.491C35.1075 26.5864 34.9071 26.6696 34.7021 26.74C35.2241 29.375 37.8021 30.98 38.3181 31.275C38.3265 31.2796 38.3337 31.286 38.3393 31.2938C38.3448 31.3016 38.3485 31.3106 38.3501 31.32C38.3518 31.3295 38.3513 31.3394 38.3487 31.3487C38.3461 31.358 38.3414 31.3667 38.3351 31.374C38.1337 31.5824 37.8905 31.7459 37.6215 31.8538C37.3525 31.9617 37.0637 32.0115 36.7741 32ZM11.2271 32C10.9386 32.0105 10.6512 31.9601 10.3835 31.8523C10.1158 31.7444 9.87373 31.5815 9.67308 31.374C9.66646 31.3667 9.66161 31.358 9.65889 31.3486C9.65617 31.3392 9.65566 31.3292 9.6574 31.3196C9.65914 31.3099 9.66308 31.3007 9.66892 31.2928C9.67476 31.2849 9.68235 31.2785 9.69108 31.274C10.2031 30.974 12.7851 29.374 13.3071 26.739C13.1021 26.6682 12.9017 26.5847 12.7071 26.489C11.9689 27.7841 10.9082 28.8661 9.62808 29.63C9.09723 29.8979 8.51262 30.0422 7.91808 30.052C7.48323 30.0679 7.05215 29.9662 6.67025 29.7577C6.28834 29.5491 5.96976 29.2414 5.74808 28.867C5.74273 28.8577 5.73991 28.8472 5.73991 28.8365C5.73991 28.8258 5.74273 28.8153 5.74808 28.806C5.75349 28.7956 5.76148 28.7867 5.77128 28.7802C5.78108 28.7738 5.79237 28.7699 5.80408 28.769C6.81508 28.688 10.0041 27.776 11.3611 25.555C11.2041 25.412 11.0541 25.261 10.9141 25.107C9.49114 26.2087 7.8348 26.9698 6.07208 27.332C5.83507 27.3639 5.59623 27.3803 5.35708 27.381C4.68908 27.381 2.50708 27.215 2.45708 25.075C2.45694 25.0663 2.45855 25.0576 2.46181 25.0496C2.46507 25.0415 2.46993 25.0342 2.47608 25.028C2.483 25.021 2.49126 25.0154 2.50036 25.0117C2.50946 25.0079 2.51923 25.006 2.52908 25.006C2.67508 25.015 2.98108 25.03 3.39208 25.03C5.63498 25.0877 7.85804 24.5968 9.86808 23.6C9.76808 23.406 9.67408 23.215 9.59508 23.032H9.58608C7.85647 23.4409 6.0925 23.6876 4.31708 23.769C3.99146 23.772 3.66611 23.7493 3.34408 23.701C2.90568 23.6633 2.4795 23.5369 2.09139 23.3295C1.70328 23.1222 1.36132 22.8382 1.08623 22.4948C0.811142 22.1513 0.608661 21.7556 0.49106 21.3316C0.373459 20.9076 0.343187 20.4641 0.40208 20.028C0.404022 20.0173 0.408373 20.0071 0.414805 19.9983C0.421237 19.9895 0.429581 19.9823 0.43921 19.9772C0.448838 19.9721 0.459499 19.9693 0.47039 19.9689C0.48128 19.9685 0.492116 19.9706 0.50208 19.975C2.54702 20.9445 4.78299 21.444 7.04608 21.437C7.70833 21.4374 8.36984 21.393 9.02608 21.304C8.98208 21.097 8.94308 20.881 8.90908 20.661C5.57708 20.261 3.38008 19.716 1.99708 18.945C1.14198 18.4487 0.502126 17.652 0.20208 16.71C-0.114964 15.788 -0.055308 14.7782 0.36808 13.9C0.374352 13.8883 0.383745 13.8785 0.395217 13.8718C0.406689 13.8651 0.419794 13.8617 0.43308 13.862C0.443522 13.8619 0.453865 13.864 0.463372 13.8684C0.472878 13.8727 0.481315 13.879 0.48808 13.887C2.69704 16.3364 5.60291 18.0509 8.81508 18.8C8.82608 18.555 8.84908 18.3 8.88208 18.055C6.75022 16.9871 4.82445 15.5499 3.19408 13.81C1.61508 11.777 1.64608 9.065 3.26408 7.638C3.27706 7.62587 3.29433 7.6194 3.31208 7.62H3.32308C3.33387 7.62142 3.34422 7.6252 3.35338 7.63108C3.36254 7.63696 3.37029 7.64478 3.37608 7.654C3.88508 8.493 8.49308 15.948 13.5491 19.169L13.5881 19.193L13.5971 19.199L13.7341 19.283C13.7671 19.3022 13.795 19.3291 13.8156 19.3613C13.8361 19.3935 13.8487 19.4302 13.8522 19.4682C13.8557 19.5063 13.8501 19.5446 13.8358 19.5801C13.8215 19.6155 13.799 19.647 13.7701 19.672C13.4739 19.9337 13.2364 20.2549 13.0731 20.6147C12.9097 20.9746 12.8242 21.3648 12.8221 21.76C12.8413 22.462 13.1076 23.1348 13.574 23.6597C14.0405 24.1847 14.6772 24.5283 15.3721 24.63C15.662 24.6834 15.9563 24.7095 16.2511 24.708C16.9106 24.7061 17.5656 24.6001 18.1921 24.394C18.2 24.3927 18.2081 24.3927 18.2161 24.394C18.225 24.3936 18.2339 24.395 18.2423 24.398C18.2507 24.4011 18.2585 24.4057 18.2651 24.4118C18.2717 24.4178 18.277 24.4251 18.2808 24.4332C18.2845 24.4413 18.2867 24.4501 18.2871 24.459V28.973C18.286 28.9891 18.2795 29.0044 18.2685 29.0163C18.2576 29.0282 18.243 29.036 18.227 29.0384C18.211 29.0409 18.1947 29.0378 18.1807 29.0297C18.1668 29.0216 18.1559 29.009 18.1501 28.994C17.8581 28.3746 17.3905 27.8548 16.8053 27.4992C16.2201 27.1435 15.5433 26.9679 14.8591 26.994C14.7062 28.4338 14.1924 29.8117 13.3651 31C13.1012 31.3101 12.7737 31.5599 12.4048 31.7324C12.0359 31.905 11.6343 31.9962 11.2271 32ZM29.3391 22.857H19.4251C19.4106 22.8578 19.3962 22.8539 19.3839 22.846C19.3717 22.8381 19.3623 22.8266 19.3571 22.813C19.3527 22.8004 19.3525 22.7867 19.3565 22.7739C19.3604 22.7611 19.3684 22.75 19.3791 22.742C20.0028 22.1899 20.4329 21.4523 20.6062 20.6377C20.7796 19.823 20.687 18.9742 20.3421 18.216C19.6271 16.183 17.6421 14.125 15.2421 14.125C15.0413 14.126 14.8408 14.1407 14.6421 14.169C14.3792 14.1833 14.126 14.2733 13.9131 14.4282C13.7002 14.5831 13.5366 14.7963 13.4421 15.042C13.2562 14.817 13.1192 14.5558 13.0396 14.2751C12.9601 13.9943 12.9398 13.7 12.9801 13.411C13.2571 11.97 15.2721 11.853 17.6801 11.853H18.7801C20.1513 11.9229 21.5251 11.7788 22.8521 11.426C22.9111 12.158 21.9281 13.38 20.9051 13.848C23.0063 15.8906 24.2522 18.6558 24.3901 21.583C24.5294 18.6557 25.7759 15.8908 27.8771 13.848C26.8551 13.379 25.8771 12.156 25.9301 11.425C27.2568 11.779 28.6308 11.9231 30.0021 11.852H31.1021C33.5081 11.852 35.5221 11.969 35.8021 13.41C35.8428 13.699 35.8228 13.9933 35.7434 14.2741C35.6641 14.5549 35.527 14.8161 35.3411 15.041C35.243 14.7977 35.0784 14.5868 34.8663 14.4324C34.6541 14.2781 34.4028 14.1864 34.1411 14.168C33.9423 14.1397 33.7418 14.125 33.5411 14.124C31.1351 14.124 29.1521 16.182 28.4411 18.214C28.0973 18.9726 28.0054 19.8214 28.1789 20.636C28.3524 21.4506 28.7821 22.1882 29.4051 22.741C29.4156 22.7489 29.4234 22.7599 29.4273 22.7725C29.4313 22.785 29.4312 22.7985 29.4271 22.811C29.4245 22.8199 29.4201 22.8282 29.4142 22.8353C29.4083 22.8425 29.4011 22.8484 29.3928 22.8527C29.3846 22.857 29.3756 22.8596 29.3664 22.8603C29.3572 22.8611 29.3479 22.8599 29.3391 22.857ZM32.7621 15.772C32.3311 15.4219 31.7891 15.2375 31.2341 15.252C30.9784 15.2521 30.7239 15.2878 30.4781 15.358C30.901 14.9392 31.4244 14.6362 31.9981 14.478C32.2179 14.6188 32.4016 14.8093 32.5345 15.034C32.6674 15.2587 32.7457 15.5115 32.7631 15.772H32.7621ZM15.2381 15.772C15.2552 15.5113 15.3332 15.2582 15.4659 15.0331C15.5986 14.808 15.7822 14.6172 16.0021 14.476C16.5757 14.6337 17.0989 14.9369 17.5211 15.356C17.2757 15.2837 17.0209 15.2479 16.7651 15.25C16.2101 15.2357 15.6682 15.4202 15.2371 15.77L15.2381 15.772ZM37.8801 12.19C37.6871 12.1245 37.5177 12.0035 37.3931 11.8422C37.2686 11.6808 37.1945 11.4863 37.1801 11.283C37.2429 10.7439 37.5095 10.2491 37.9251 9.9C38.3277 9.56412 38.5882 9.08819 38.6541 8.568C38.6541 7.398 37.3771 7.088 36.7011 7.088C36.5502 7.06923 36.3974 7.1005 36.2661 7.177C36.262 7.18192 36.2592 7.1878 36.2579 7.1941C36.2567 7.20039 36.2571 7.2069 36.2591 7.213C36.3691 7.57998 36.3955 7.96698 36.3361 8.34548C36.2767 8.72398 36.1332 9.08433 35.9161 9.4C35.6384 9.76659 35.2779 10.0623 34.8641 10.263C34.4503 10.4638 33.9949 10.5638 33.5351 10.555C33.5222 10.4395 33.5199 10.323 33.5281 10.207C33.9406 10.2221 34.3479 10.1116 34.6963 9.8902C35.0446 9.6688 35.3176 9.34687 35.4791 8.967C35.6334 8.54111 35.6551 8.07844 35.5412 7.64C35.4273 7.20156 35.1832 6.80793 34.8411 6.511C35.0831 5.711 35.3801 5.329 35.7481 5.329C36.1761 5.329 36.6481 5.851 37.1021 6.356C37.36 6.6688 37.6529 6.95098 37.9751 7.197C38.2881 7.34963 38.6276 7.44061 38.9751 7.465H38.9931H38.9991C39.6281 7.558 40.2791 7.654 40.3581 8.13C40.4301 8.558 40.1951 8.816 39.9231 9.115C39.5798 9.42954 39.3508 9.84924 39.2721 10.3081C39.1933 10.767 39.2693 11.239 39.4881 11.65C39.1375 11.3626 38.7168 11.1735 38.2691 11.102C38.2053 11.0977 38.1413 11.1082 38.0823 11.1329C38.0233 11.1575 37.9708 11.1956 37.9291 11.244C37.8556 11.386 37.8124 11.5417 37.8021 11.7012C37.7917 11.8608 37.8145 12.0207 37.8691 12.171L37.8801 12.19ZM10.1231 12.19C10.1775 12.0395 10.2002 11.8793 10.1897 11.7196C10.1792 11.5599 10.1358 11.4041 10.0621 11.262C10.0203 11.2136 9.96785 11.1755 9.90884 11.1509C9.84982 11.1262 9.78589 11.1157 9.72208 11.12C9.27414 11.1907 8.85326 11.3799 8.50308 11.668C8.7217 11.2575 8.7979 10.7861 8.71971 10.3277C8.64153 9.86929 8.41339 9.44979 8.07108 9.135C7.79808 8.835 7.56108 8.575 7.63408 8.147C7.71308 7.672 8.36308 7.575 8.99108 7.481C9.34689 7.45747 9.69486 7.36581 10.0161 7.211C10.3347 6.96955 10.6237 6.69128 10.8771 6.382L10.8921 6.366C11.3511 5.857 11.8251 5.331 12.2541 5.331C12.6221 5.331 12.9191 5.718 13.1611 6.513C12.8191 6.81004 12.5752 7.20373 12.4615 7.64217C12.3478 8.0806 12.3696 8.54321 12.5241 8.969C12.6855 9.34886 12.9585 9.67072 13.3069 9.89198C13.6553 10.1132 14.0626 10.2234 14.4751 10.208C14.4755 10.2123 14.4755 10.2167 14.4751 10.221V10.251C14.4837 10.353 14.4814 10.4555 14.4681 10.557C14.0079 10.5656 13.5523 10.4652 13.1383 10.2642C12.7244 10.0631 12.3638 9.76698 12.0861 9.4C11.8682 9.08394 11.7242 8.72289 11.6648 8.3436C11.6054 7.96432 11.6322 7.57654 11.7431 7.209C11.745 7.2029 11.7454 7.19639 11.7442 7.1901C11.743 7.1838 11.7402 7.17792 11.7361 7.173C11.6046 7.09684 11.4518 7.06593 11.3011 7.085C10.6261 7.085 9.34808 7.394 9.34808 8.564C9.41225 9.08563 9.67254 9.56329 10.0761 9.9C10.4932 10.2492 10.7612 10.7447 10.8251 11.285C10.8105 11.4884 10.736 11.683 10.6111 11.8442C10.4862 12.0054 10.3164 12.126 10.1231 12.191V12.19ZM32.6651 10.666H29.5261C28.4538 10.709 27.4037 10.3527 26.5791 9.666C25.967 9.12097 25.5355 8.4024 25.3421 7.606H22.6581C22.4645 8.40236 22.033 9.12089 21.4211 9.666C20.5967 10.3525 19.547 10.7089 18.4751 10.666H15.3371V10.66C15.076 10.3087 14.8477 9.93408 14.6551 9.541C14.5363 9.30675 14.4756 9.0474 14.4781 8.78479C14.4805 8.52218 14.546 8.264 14.6691 8.032C14.793 7.87616 14.9533 7.75304 15.1358 7.67338C15.3183 7.59372 15.5175 7.55994 15.7161 7.575L16.9021 8.669L18.1021 7.575C18.3008 7.55995 18.5002 7.59372 18.6828 7.67338C18.8655 7.75303 19.0259 7.87615 19.1501 8.032C19.2731 8.264 19.3386 8.52218 19.3411 8.78479C19.3435 9.0474 19.2828 9.30675 19.1641 9.541C19.0659 9.76709 18.946 9.9831 18.8061 10.186C19.4913 10.111 20.1353 9.8216 20.6464 9.35903C21.1574 8.89647 21.5094 8.28437 21.6521 7.61V7.604C21.2734 7.00892 20.9311 6.39146 20.6271 5.755C20.4564 5.44167 20.3649 5.09137 20.3605 4.7346C20.3562 4.37783 20.4391 4.0254 20.6021 3.708C20.7957 3.47381 21.0441 3.29105 21.3253 3.17591C21.6065 3.06078 21.9118 3.01684 22.2141 3.048L24.0021 5.173L25.7911 3.048C26.0935 3.01685 26.3989 3.06079 26.6803 3.17591C26.9616 3.29104 27.2102 3.4738 27.4041 3.708C27.5676 4.02528 27.6511 4.37769 27.6475 4.7346C27.6438 5.09152 27.5531 5.44214 27.3831 5.756C27.0767 6.39002 26.7338 7.00572 26.3561 7.6L26.3511 7.609C26.4931 8.28359 26.8449 8.89596 27.3561 9.35848C27.8673 9.821 28.5117 10.11 29.1971 10.184C29.0575 9.9809 28.9376 9.76492 28.8391 9.539C28.7203 9.30475 28.6596 9.0454 28.6621 8.78279C28.6645 8.52018 28.73 8.262 28.8531 8.03C28.9776 7.87443 29.1383 7.75166 29.3211 7.67236C29.504 7.59306 29.7034 7.55964 29.9021 7.575L31.0961 8.669L32.2901 7.575C32.4889 7.55998 32.6883 7.59387 32.871 7.67371C33.0537 7.75354 33.2141 7.8769 33.3381 8.033C33.4611 8.26501 33.5266 8.52318 33.5291 8.78579C33.5315 9.0484 33.4708 9.30775 33.3521 9.542C33.1608 9.9353 32.9328 10.3096 32.6711 10.66L32.6661 10.667L32.6651 10.666ZM31.2381 6.857L30.4771 5.728L31.2381 4.572L32.0021 5.727L31.2411 6.856L31.2381 6.857ZM16.7621 6.857L16.0021 5.727L16.7631 4.571L17.5251 5.727L16.7641 6.856L16.7621 6.857ZM24.0021 3.048L22.8571 1.485L24.0021 0L25.1441 1.485L24.0021 3.047V3.048Z" fill="#3B4256"/>
</svg>
