<svg width="65" height="33" viewBox="0 0 65 33" fill="none" xmlns="http://www.w3.org/2000/svg">
<path opacity="0.5" d="M33.16 0.752303C41.2315 0.950287 48.7913 4.15662 54.5002 9.93622C60.2093 15.6762 63.4379 23.2767 63.6351 31.3917C55.5633 31.194 48.0038 27.9874 42.2946 22.2078C36.546 16.4282 33.3175 8.82788 33.16 0.752303ZM32.4117 1.38568e-05C32.4117 17.6949 46.7044 32.0647 64.3042 32.0647C64.3436 14.3698 50.051 1.30813e-05 32.4117 1.38568e-05ZM1.22812 31.352C1.42498 23.2368 4.65358 15.6759 10.3627 9.89631C16.0719 4.15636 23.6317 0.910373 31.7032 0.712388C31.5063 8.82761 28.2777 16.3885 22.5685 22.1681C16.8594 27.9475 9.2996 31.1541 1.22812 31.352ZM0.519531 32.0644C18.1588 32.0644 32.4117 17.6949 32.4117 1.38568e-05C14.8119 1.46305e-05 0.51953 14.3696 0.519531 32.0644Z" fill="#2F80ED"/>
</svg>
