<svg width="125" height="106" viewBox="0 0 125 106" fill="none" xmlns="http://www.w3.org/2000/svg">
<g opacity="0.5">
<path d="M123.504 1.3838C123.307 9.5014 120.119 17.1044 114.372 22.8462C108.665 28.5879 101.108 31.835 93.0387 32.033C93.2355 23.9151 96.4236 16.3124 102.17 10.5706C107.917 4.82882 115.435 1.58178 123.504 1.3838ZM124.213 0.670898C106.618 0.670898 92.3301 15.0452 92.3301 32.7456C109.964 32.7456 124.213 18.4109 124.213 0.670898ZM93.0783 33.4982C101.147 33.6961 108.665 36.9432 114.412 42.685C120.119 48.4268 123.347 56.0295 123.544 64.1473C115.475 63.9491 107.957 60.702 102.21 54.9603C96.4633 49.1791 93.2358 41.5761 93.0783 33.4982ZM92.3698 32.7456C92.3698 50.4857 106.658 64.8203 124.252 64.8203C124.213 47.1199 109.964 32.7456 92.3698 32.7456Z" fill="#2F80ED"/>
<path d="M91.6218 33.4984C91.4249 41.616 88.2368 49.219 82.49 54.9605C76.7827 60.7023 69.2253 63.9493 61.1565 64.1476C61.3531 56.0297 64.5415 48.427 70.2882 42.6852C76.035 36.9038 83.5921 33.6567 91.6218 33.4984ZM92.3698 32.7458C74.7755 32.7458 60.4873 47.1202 60.4873 64.8206C78.0816 64.8602 92.3698 50.4859 92.3698 32.7458ZM61.1959 1.38403C69.265 1.58201 76.783 4.82906 82.5297 10.5709C88.2371 16.3126 91.4646 23.9156 91.6615 32.0332C83.5924 31.8352 76.0744 28.5882 70.3276 22.8464C64.5811 17.1046 61.3928 9.50163 61.1959 1.38403ZM60.4876 0.671387C60.4876 18.4114 74.7755 32.7458 92.3698 32.7458C92.3698 15.0455 78.0819 0.671387 60.4876 0.671387Z" fill="#2F80ED"/>
<path d="M31.6396 74.6781C31.4431 78.4794 29.9079 82.083 27.1921 84.7755C24.476 87.5079 20.9336 89.0524 17.1549 89.2504C17.5486 81.3701 23.8462 75.0344 31.6396 74.6781ZM32.3877 73.9258C23.5708 73.9258 16.4463 81.0931 16.4463 89.963C25.224 89.963 32.3877 82.7957 32.3877 73.9258ZM31.6396 90.7153C31.4431 94.5166 29.9079 98.1203 27.1921 100.813C24.476 103.545 20.9336 105.09 17.1549 105.288C17.5486 97.4074 23.8462 91.0716 31.6396 90.7153ZM32.3877 89.963C23.5708 89.963 16.4463 97.1303 16.4463 106C25.224 106 32.3877 98.8329 32.3877 89.963Z" fill="#2F80ED"/>
<path d="M1.21347 90.7148C9.0463 91.0711 15.3442 97.4069 15.6985 105.287C7.86542 104.931 1.56776 98.5948 1.21347 90.7148ZM0.505139 89.9625C0.505139 98.8324 7.62939 106 16.4463 106C16.4463 97.1695 9.28258 89.9625 0.505139 89.9625ZM1.214 74.6776C9.04683 75.0339 15.3445 81.3697 15.6988 89.2499C7.86594 88.8539 1.56803 82.5182 1.214 74.6776ZM0.505404 73.9253C0.505404 82.7952 7.62965 89.9625 16.4465 89.9625C16.4465 81.132 9.28285 73.9253 0.505404 73.9253ZM31.6394 42.5632C31.4428 46.3646 29.9076 49.9682 27.1918 52.6607C24.4757 55.3931 20.9333 56.9376 17.1546 57.1356C17.5483 49.295 23.846 42.9592 31.6394 42.5632ZM32.3874 41.8503C23.5705 41.8503 16.446 49.0177 16.446 57.8878C25.2237 57.8878 32.3874 50.7205 32.3874 41.8503ZM31.6394 58.6005C31.4428 62.4021 29.9076 66.0054 27.1918 68.6982C24.4757 71.4303 20.9333 72.9748 17.1546 73.1728C17.5483 65.3322 23.846 58.9964 31.6394 58.6005ZM32.3874 57.8878C23.5705 57.8878 16.446 65.0552 16.446 73.9251C25.2237 73.9251 32.3874 66.7577 32.3874 57.8878ZM1.21347 58.6005C9.0463 58.9571 15.344 65.2928 15.6982 73.1728C7.86541 72.8164 1.56776 66.4807 1.21347 58.6005ZM0.504883 57.8878C0.504883 66.7577 7.62913 73.9251 16.446 73.9251C16.446 65.0552 9.28233 57.8878 0.504883 57.8878Z" fill="#2F80ED"/>
</g>
</svg>
