<svg width="64" height="34" viewBox="0 0 64 34" fill="none" xmlns="http://www.w3.org/2000/svg">
<path opacity="0.5" d="M48.8017 32.3196C49.156 24.442 55.4557 18.1081 63.2912 17.7518C62.9369 25.6296 56.6369 31.9633 48.8017 32.3196ZM48.0537 33.032C56.8732 33.032 63.9998 25.867 63.9998 16.9998C55.2197 16.9998 48.0537 24.2044 48.0537 33.032ZM32.8556 32.3191C33.2099 24.4415 39.5096 18.1078 47.3451 17.7515C46.9514 25.6291 40.6516 31.963 32.8556 32.3191ZM32.1076 33.0317C40.9271 33.0317 48.0537 25.8668 48.0537 16.9995C39.2733 16.9995 32.1076 24.2041 32.1076 33.0317ZM0.923703 1.71983C4.70345 1.91755 8.2866 3.46151 10.9638 6.19284C13.6806 8.92444 15.2164 12.4871 15.4132 16.2874C7.61718 15.8914 1.31742 9.55777 0.923703 1.71983ZM0.214848 0.967556C0.214847 9.83481 7.34145 17 16.1612 17C16.1612 8.17215 9.0346 0.967557 0.214848 0.967556ZM16.8698 1.71983C20.6498 1.91755 24.2327 3.46151 26.9101 6.19284C29.6267 8.92444 31.1624 12.4871 31.3593 16.2874C23.5633 15.8914 17.2635 9.55778 16.8698 1.71983ZM16.1612 0.967558C16.1612 9.83481 23.2878 17 32.1073 17C32.1073 8.17216 24.9807 0.967559 16.1612 0.967558ZM16.8698 32.3196C17.2244 24.442 23.5241 18.1084 31.3593 17.7521C31.005 25.6296 24.7053 31.9633 16.8698 32.3196ZM16.1612 33.0322C24.9807 33.0322 32.1073 25.8673 32.1073 17C23.2878 17 16.1612 24.2046 16.1612 33.0322Z" fill="#2F80ED"/>
</svg>
