<svg width="83" height="68" viewBox="0 0 83 68" fill="none" xmlns="http://www.w3.org/2000/svg">
<path opacity="0.5" d="M36.7665 40.0094L14.983 40.0094L2.25909 27.0119L24.0426 27.012L36.7665 40.0094ZM38.9042 40.9303L24.3987 26.0908L0.0704487 26.0908L14.5759 40.9303L38.9042 40.9303ZM36.7665 43.5404L24.0426 56.5379L2.25908 56.5379L14.983 43.5404L36.7665 43.5404ZM38.9042 42.6192L14.5759 42.6192L0.0704473 57.4588L24.3987 57.4588L38.9042 42.6192ZM39.566 67.5905L26.6893 67.5905L26.6893 59.0452L39.566 45.6897L39.566 67.5905ZM40.482 68.0002L40.482 43.4379L25.773 58.6868L25.773 68.0002L40.482 68.0002ZM55.9544 67.5905L43.0776 67.5905L43.0777 45.6897L55.9544 59.0452L55.9544 67.5905ZM56.8707 68.0002L56.8707 58.6868L42.1617 43.4379L42.1617 68.0002L56.8707 68.0002ZM80.3846 56.5892L58.601 56.5892L45.8772 43.592L67.6607 43.592L80.3846 56.5892ZM82.5732 57.5104L68.0678 42.6708L43.7395 42.6708L58.2446 57.5104L82.5732 57.5104ZM80.3846 27.012L67.6607 40.0094L45.8772 40.0094L58.601 27.012L80.3846 27.012ZM82.5732 26.0908L58.2446 26.0908L43.7395 40.9303L68.0678 40.9303L82.5732 26.0908ZM55.9544 24.5562L43.0777 37.9118L43.0777 16.0106L55.9544 2.65503L55.9544 24.5562ZM56.8707 24.9143L56.8707 0.35205L42.1617 15.6013L42.1617 40.1632L56.8707 24.9143ZM39.566 37.9118L26.6893 24.5562L26.6893 2.60378L39.566 15.9594L39.566 37.9118ZM40.482 40.1632L40.482 15.6013L25.773 0.352048L25.773 24.9143L40.482 40.1632Z" fill="#2F80ED"/>
</svg>
