<svg width="65" height="33" viewBox="0 0 65 33" fill="none" xmlns="http://www.w3.org/2000/svg">
<path opacity="0.5" d="M1.15318 1.64847C9.22466 1.84645 16.7844 5.05278 22.4936 10.8324C28.2028 16.5723 31.4314 24.1729 31.6282 32.2879C23.5565 32.0899 15.997 28.8835 10.2878 23.1039C4.57863 17.3243 1.35004 9.76343 1.15318 1.64847ZM0.444335 0.935825C0.444335 18.6307 14.737 33.0005 32.3368 33.0005C32.3368 15.266 18.0836 0.935825 0.444335 0.935825ZM33.0851 32.2479C33.2819 24.133 36.5105 16.5721 42.2197 10.7925C47.9289 5.05251 55.4884 1.80654 63.5601 1.60855C63.363 9.72378 60.1344 17.2847 54.4252 23.064C48.6769 28.8436 41.1171 32.0896 33.0851 32.2479ZM32.3368 32.9606C49.976 32.9606 64.2293 18.591 64.2293 0.895902C46.6295 0.935552 32.3368 15.2657 32.3368 32.9606Z" fill="#2F80ED"/>
</svg>
