<svg width="65" height="74" viewBox="0 0 65 74" fill="none" xmlns="http://www.w3.org/2000/svg">
<g clip-path="url(#clip0)">
<path d="M50.3561 57.7642C50.0784 57.7642 49.8122 57.8748 49.6159 58.0716C49.4195 58.2683 49.3092 58.5352 49.3092 58.8136C49.3092 59.0919 49.4195 59.3588 49.6159 59.5556C49.8122 59.7524 50.0784 59.8629 50.3561 59.8629L46.0796 64.1496V66.3734C46.0831 66.5789 46.147 66.7787 46.2632 66.948C46.3795 67.1173 46.543 67.2484 46.7332 67.325C46.9235 67.4017 47.132 67.4203 47.3328 67.3787C47.5336 67.3371 47.7177 67.2371 47.862 67.0912C48.0064 66.9453 48.1046 66.7599 48.1444 66.5583C48.1842 66.3567 48.1638 66.1478 48.0858 65.9578C48.0077 65.7677 47.8755 65.605 47.7057 65.4899C47.5358 65.3748 47.3359 65.3124 47.1309 65.3106L51.4074 61.0239V58.8091C51.4074 58.6711 51.3801 58.5345 51.3272 58.4072C51.2743 58.2798 51.1967 58.1642 51.0989 58.0671C51.0012 57.9699 50.8852 57.8931 50.7577 57.8412C50.6302 57.7892 50.4937 57.763 50.3561 57.7642Z" fill="white"/>
<path d="M50.3561 51.2535C50.0784 51.2535 49.8122 51.364 49.6159 51.5608C49.4195 51.7576 49.3092 52.0245 49.3092 52.3028C49.3092 52.5811 49.4195 52.848 49.6159 53.0448C49.8122 53.2416 50.0784 53.3522 50.3561 53.3522L46.0796 57.6389V59.8627C46.0814 60.0686 46.1438 60.2693 46.259 60.4398C46.3742 60.6103 46.5371 60.7428 46.7272 60.8208C46.9173 60.8988 47.1261 60.9187 47.3275 60.8781C47.5289 60.8375 47.7138 60.7382 47.859 60.5926C48.0043 60.447 48.1034 60.2616 48.1439 60.0598C48.1844 59.8579 48.1645 59.6486 48.0867 59.458C48.0089 59.2674 47.8767 59.1042 47.7066 58.9887C47.5366 58.8732 47.3363 58.8106 47.1309 58.8089L51.4074 54.5221V52.2983C51.4074 52.1604 51.3801 52.0238 51.3272 51.8964C51.2743 51.7691 51.1967 51.6535 51.0989 51.5563C51.0012 51.4592 50.8852 51.3824 50.7577 51.3304C50.6302 51.2784 50.4937 51.2523 50.3561 51.2535Z" fill="white"/>
<path d="M50.3561 44.752C50.0784 44.752 49.8122 44.8625 49.6159 45.0593C49.4195 45.2561 49.3092 45.523 49.3092 45.8014C49.3092 46.0797 49.4195 46.3466 49.6159 46.5434C49.8122 46.7402 50.0784 46.8507 50.3561 46.8507L46.0796 51.1375V53.3612C46.0814 53.5671 46.1438 53.7679 46.259 53.9384C46.3742 54.1088 46.5371 54.2414 46.7272 54.3193C46.9173 54.3973 47.1261 54.4172 47.3275 54.3766C47.5289 54.336 47.7138 54.2367 47.859 54.0911C48.0043 53.9455 48.1034 53.7602 48.1439 53.5583C48.1844 53.3565 48.1645 53.1471 48.0867 52.9565C48.0089 52.766 47.8767 52.6027 47.7066 52.4872C47.5366 52.3717 47.3363 52.3092 47.1309 52.3074L51.4074 48.0206V45.7969C51.4074 45.6589 51.3801 45.5223 51.3272 45.3949C51.2743 45.2676 51.1967 45.152 51.0989 45.0549C51.0012 44.9577 50.8852 44.8809 50.7577 44.8289C50.6302 44.777 50.4937 44.7508 50.3561 44.752Z" fill="white"/>
<path d="M15.3061 58.8086C15.3061 58.5303 15.1958 58.2634 14.9995 58.0666C14.8032 57.8698 14.5369 57.7593 14.2593 57.7593C13.9816 57.7593 13.7153 57.8698 13.519 58.0666C13.3227 58.2634 13.2124 58.5303 13.2124 58.8086V61.0324L17.4889 65.3192C17.2827 65.3192 17.0812 65.3804 16.9098 65.4953C16.7384 65.6101 16.6047 65.7733 16.5259 65.9642C16.447 66.1551 16.4263 66.3652 16.4665 66.5679C16.5068 66.7706 16.606 66.9568 16.7518 67.1029C16.8976 67.2491 17.0833 67.3486 17.2855 67.3889C17.4877 67.4292 17.6973 67.4085 17.8878 67.3294C18.0783 67.2503 18.2411 67.1164 18.3556 66.9446C18.4702 66.7727 18.5313 66.5707 18.5313 66.3641V64.1403L14.2548 59.8535C14.3924 59.8547 14.5289 59.8286 14.6564 59.7766C14.7839 59.7246 14.8999 59.6478 14.9977 59.5507C15.0954 59.4535 15.173 59.3379 15.2259 59.2106C15.2789 59.0832 15.3061 58.9466 15.3061 58.8086Z" fill="white"/>
<path d="M15.3061 52.2984C15.3061 52.0201 15.1958 51.7532 14.9995 51.5564C14.8032 51.3596 14.5369 51.249 14.2593 51.249C13.9816 51.249 13.7153 51.3596 13.519 51.5564C13.3227 51.7532 13.2124 52.0201 13.2124 52.2984V54.5221L17.4889 58.8089C17.2827 58.8089 17.0812 58.8701 16.9098 58.985C16.7384 59.0998 16.6047 59.263 16.5259 59.4539C16.447 59.6448 16.4263 59.8549 16.4665 60.0576C16.5068 60.2603 16.606 60.4465 16.7518 60.5926C16.8976 60.7387 17.0833 60.8383 17.2855 60.8786C17.4877 60.9189 17.6973 60.8982 17.8878 60.8191C18.0783 60.74 18.2411 60.6061 18.3556 60.4343C18.4702 60.2624 18.5313 60.0604 18.5313 59.8538V57.63L14.2548 53.3433C14.3924 53.3445 14.5289 53.3183 14.6564 53.2663C14.7839 53.2143 14.8999 53.1376 14.9977 53.0404C15.0954 52.9433 15.173 52.8277 15.2259 52.7003C15.2789 52.573 15.3061 52.4364 15.3061 52.2984Z" fill="white"/>
<path d="M15.3061 45.7969C15.3061 45.5186 15.1958 45.2517 14.9995 45.0549C14.8032 44.8581 14.5369 44.7476 14.2593 44.7476C13.9816 44.7476 13.7153 44.8581 13.519 45.0549C13.3227 45.2517 13.2124 45.5186 13.2124 45.7969V48.0207L17.4889 52.3074C17.2827 52.3074 17.0812 52.3687 16.9098 52.4835C16.7384 52.5983 16.6047 52.7615 16.5259 52.9524C16.447 53.1434 16.4263 53.3534 16.4665 53.5561C16.5068 53.7588 16.606 53.945 16.7518 54.0911C16.8976 54.2373 17.0833 54.3368 17.2855 54.3771C17.4877 54.4174 17.6973 54.3967 17.8878 54.3176C18.0783 54.2386 18.2411 54.1046 18.3556 53.9328C18.4702 53.761 18.5313 53.559 18.5313 53.3523V51.1285L14.2548 46.8418C14.3924 46.843 14.5289 46.8168 14.6564 46.7648C14.7839 46.7129 14.8999 46.6361 14.9977 46.5389C15.0954 46.4418 15.173 46.3262 15.2259 46.1989C15.2789 46.0715 15.3061 45.9349 15.3061 45.7969Z" fill="white"/>
<path d="M25.5344 15.2271V25.6403H38.9074V15.2271C38.9074 15.1173 38.9503 15.0119 39.0269 14.9334C39.1035 14.8549 39.2077 14.8097 39.3172 14.8073H40.1369V13.2355H32.8936V11.6548H31.5572V13.2355H24.2871V14.8073H25.1246C25.2341 14.8097 25.3383 14.8549 25.4149 14.9334C25.4916 15.0119 25.5344 15.1173 25.5344 15.2271ZM27.0936 14.8073H37.3483V24.0685H27.0936V14.8073Z" fill="white"/>
<path d="M64.2366 25.8724L57.6437 32.4812L52.5386 20.2461C52.5196 20.1998 52.5047 20.152 52.4941 20.1032C52.4472 19.9083 52.4692 19.7031 52.5564 19.5227L53.4028 17.8169L51.8169 17.4865L50.1598 20.8266L41.4108 38.4201H23.2089L14.4599 20.8266L12.7939 17.4775L11.208 17.808L12.0544 19.5137C12.1074 19.6262 12.1371 19.7484 12.1417 19.8727C12.1463 19.997 12.1257 20.121 12.0811 20.2371L6.97604 32.4722L0.383103 25.8635L0 27.7121L1.38986 29.1053C1.55393 29.2684 1.64684 29.49 1.64823 29.7216V45.5647L10.9674 54.9062C11.0384 54.9763 11.1284 55.0239 11.2262 55.0431C11.324 55.0623 11.4253 55.0523 11.5174 55.0142C11.6096 54.9761 11.6885 54.9117 11.7444 54.829C11.8002 54.7462 11.8306 54.6489 11.8317 54.549V39.5632L19.6541 47.4044L19.6719 64.5871C19.6743 65.3325 19.9707 66.0466 20.4965 66.5737C21.0223 67.1008 21.7348 67.3979 22.4784 67.4003H30.0959C30.4795 67.4026 30.8466 67.557 31.117 67.8298C31.3874 68.1025 31.5392 68.4714 31.5392 68.856V69.2043H33.1072V68.856C33.1096 68.473 33.2624 68.1064 33.5326 67.8355C33.8027 67.5647 34.1685 67.4115 34.5506 67.4092H42.1681C42.9117 67.4068 43.6241 67.1097 44.15 66.5826C44.6758 66.0556 44.9722 65.3414 44.9745 64.596L44.9567 47.4222L52.7881 39.5632V54.549C52.7891 54.6489 52.8195 54.7462 52.8753 54.829C52.9312 54.9117 53.0101 54.9761 53.1023 55.0142C53.1944 55.0523 53.2957 55.0623 53.3935 55.0431C53.4913 55.0239 53.5813 54.9763 53.6523 54.9062L62.9715 45.5647V29.7216C62.9729 29.49 63.0658 29.2684 63.2299 29.1053L64.6197 27.7121L64.2366 25.8724ZM10.2636 51.9769L3.21629 44.9216V30.9272L10.2636 37.9914V51.9769ZM10.7447 36.2499L8.1699 33.6779L13.1592 21.7286L18.5761 32.633L18.5137 32.6062L14.6648 40.1884L10.7447 36.2499ZM19.6541 38.4201V45.1806L15.832 41.3494L19.4135 34.303L21.4627 38.4201H19.6541ZM21.2221 39.7686H43.3798V48.4493H21.2221V39.7686ZM21.231 49.7264C21.231 49.6032 21.2799 49.4851 21.3667 49.398C21.4536 49.3109 21.5715 49.262 21.6943 49.262H42.9254C43.0483 49.262 43.1661 49.3109 43.253 49.398C43.3399 49.4851 43.3887 49.6032 43.3887 49.7264V56.862H41.1613V58.7107H40.894L40.4575 55.0937L41.1168 54.1203V51.2357H39.1122L38.9251 52.611H38.8538L38.4796 51.2357H36.9026L36.5284 52.611H36.4572L36.2701 51.2357H34.2566V54.1203L34.9159 55.0937L34.4793 58.7107H34.0873V56.862H30.479V58.7107H30.0781L29.6415 55.0937L30.3008 54.1203V51.2357H28.2873L28.1002 52.611H28.0289L27.6547 51.2357H26.0777L25.7036 52.611H25.6323L25.4452 51.2357H23.4228V54.1203L24.082 55.0937L23.6455 58.7107H23.3871V56.862H21.231V49.7264ZM40.0031 58.7107H39.3794V56.862H35.9404V58.7107H35.3881L35.8513 54.8705L35.1564 53.8524V52.1377H35.495L35.6821 53.513H37.2145L37.5887 52.1377H37.8025L38.1767 53.513H39.7091L39.8962 52.1377H40.2347V53.8524L39.5398 54.8705L40.0031 58.7107ZM29.1693 58.7107H28.6258V56.862H25.1957V58.7107H24.5632L25.0264 54.8705L24.3226 53.8434V52.1377H24.6612L24.8483 53.513H26.3807L26.7549 52.1377H26.9687L27.3429 53.513H28.8753L29.0624 52.1377H29.4009V53.8524L28.706 54.8705L29.1693 58.7107ZM32.3143 66.8287C32.0325 66.517 31.6887 66.2678 31.3051 66.0971C30.9216 65.9264 30.5066 65.8379 30.087 65.8374C30.4255 63.3815 31.8243 62.4884 32.2876 62.3098C32.7598 62.4884 34.1586 63.3904 34.4882 65.8374C34.0775 65.8448 33.6726 65.9366 33.2987 66.1071C32.9248 66.2776 32.5897 66.5232 32.3143 66.8287ZM42.1592 65.8374H35.8513C35.397 61.8989 32.5727 61.2024 32.448 61.1756C32.3512 61.1537 32.2507 61.1537 32.1539 61.1756C32.0203 61.2024 29.2049 61.89 28.7506 65.8374H22.4784C22.1499 65.8374 21.8349 65.7066 21.6027 65.4738C21.3704 65.241 21.24 64.9253 21.24 64.596V58.2195C21.24 58.1585 21.2519 58.0981 21.2752 58.0418C21.2985 57.9854 21.3326 57.9342 21.3757 57.8911C21.4187 57.848 21.4697 57.8138 21.526 57.7904C21.5822 57.7671 21.6424 57.7551 21.7032 57.7551H22.514V59.6038H26.1045V57.7551H27.7527V59.6038H31.3877V57.7551H33.2142V59.6038H36.8492V57.7551H38.4974V59.6038H42.0879V57.7551H42.9521C43.013 57.7551 43.0732 57.7671 43.1294 57.7904C43.1856 57.8138 43.2367 57.848 43.2797 57.8911C43.3227 57.9342 43.3568 57.9854 43.3801 58.0418C43.4034 58.0981 43.4154 58.1585 43.4154 58.2195V64.596C43.4154 64.7606 43.3828 64.9235 43.3195 65.0752C43.2561 65.227 43.1633 65.3647 43.0464 65.4802C42.9295 65.5957 42.7909 65.6868 42.6386 65.7481C42.4863 65.8094 42.3233 65.8398 42.1592 65.8374ZM44.9567 45.1896V38.4201H43.157L45.2062 34.303L48.7878 41.3494L44.9567 45.1896ZM49.9549 40.1884L46.0971 32.6062L46.0348 32.633L51.4517 21.7286L56.4409 33.6779L53.875 36.2499L49.9549 40.1884ZM61.4034 44.9216L54.3561 51.9769V37.9914L61.4034 30.9272V44.9216Z" fill="white"/>
<path d="M32.6532 44.8232H31.7979L30.604 41.7778H33.8381L32.6532 44.8232Z" fill="white"/>
<path d="M31.7979 45.6719H32.6532L33.8381 48.7173H30.604L31.7979 45.6719Z" fill="white"/>
<path d="M31.7979 44.8232V45.6716L28.7598 46.8683V43.6265L31.7979 44.8232Z" fill="white"/>
<path d="M32.644 45.6716V44.8232L35.6911 43.6265V46.8683L32.644 45.6716Z" fill="white"/>
<path d="M32.6433 44.8232H31.7969V45.6672H32.6433V44.8232Z" fill="white"/>
<path fill-rule="evenodd" clip-rule="evenodd" d="M38.4976 33.3471H26.0957L24.9018 30.9804L27.539 29.4265L29.9089 30.8018V32.0343H34.6576V30.8018L37.0275 29.4265L39.6647 30.9804L38.4709 33.3471H38.4976ZM31.1741 30.8018V29.9891L27.5658 27.8726L22.9863 30.4803L25.7482 35.9281V37.2766H38.845V35.9281L41.607 30.4803L37.0364 27.8726L33.4281 29.9891V30.8018H31.1741ZM37.1968 35.9281H27.3965L26.7906 34.7135H37.8116L37.1968 35.9281Z" fill="white"/>
<path d="M32.9111 26.9707H31.5034V31.4923H32.9111V26.9707Z" fill="white"/>
<path d="M33.7843 28.0337H30.6304V29.3697H33.7843V28.0337Z" fill="white"/>
<path d="M32.2168 8.98493L30.415 10.791L32.2162 12.5965L34.0179 10.7904L32.2168 8.98493Z" fill="white"/>
</g>
<defs>
<clipPath id="clip0">
<rect width="64.6197" height="74" fill="white"/>
</clipPath>
</defs>
</svg>
