<svg width="65" height="74" viewBox="0 0 65 74" fill="none" xmlns="http://www.w3.org/2000/svg">
<path d="M50.4575 57.764C50.1793 57.764 49.9125 57.8745 49.7157 58.0713C49.519 58.2681 49.4085 58.535 49.4085 58.8133C49.4085 59.0916 49.519 59.3585 49.7157 59.5553C49.9125 59.7521 50.1793 59.8627 50.4575 59.8627L46.1724 64.1494V66.3731C46.1759 66.5786 46.2399 66.7785 46.3564 66.9478C46.4729 67.117 46.6367 67.2482 46.8273 67.3248C47.0179 67.4014 47.2269 67.4201 47.4281 67.3785C47.6293 67.3369 47.8137 67.2369 47.9584 67.091C48.103 66.945 48.2015 66.7597 48.2413 66.5581C48.2812 66.3565 48.2608 66.1476 48.1826 65.9575C48.1044 65.7675 47.9719 65.6047 47.8017 65.4896C47.6316 65.3745 47.4312 65.3122 47.2258 65.3104L51.5109 61.0237V58.8088C51.5109 58.6709 51.4836 58.5343 51.4305 58.4069C51.3775 58.2796 51.2998 58.164 51.2018 58.0668C51.1039 57.9697 50.9877 57.8929 50.8599 57.8409C50.7322 57.7889 50.5954 57.7628 50.4575 57.764Z" fill="#002B68"/>
<path d="M50.4575 51.2535C50.1793 51.2535 49.9125 51.364 49.7157 51.5608C49.519 51.7576 49.4085 52.0245 49.4085 52.3028C49.4085 52.5811 49.519 52.848 49.7157 53.0448C49.9125 53.2416 50.1793 53.3522 50.4575 53.3522L46.1724 57.6389V59.8627C46.1741 60.0686 46.2367 60.2693 46.3521 60.4398C46.4676 60.6103 46.6308 60.7428 46.8213 60.8208C47.0117 60.8987 47.221 60.9187 47.4228 60.8781C47.6246 60.8375 47.8099 60.7382 47.9554 60.5926C48.1009 60.447 48.2002 60.2616 48.2408 60.0598C48.2814 59.8579 48.2615 59.6486 48.1835 59.458C48.1056 59.2674 47.9731 59.1042 47.8027 58.9887C47.6323 58.8732 47.4316 58.8106 47.2258 58.8089L51.5109 54.5221V52.2983C51.5109 52.1604 51.4836 52.0238 51.4305 51.8964C51.3775 51.7691 51.2998 51.6535 51.2018 51.5563C51.1039 51.4592 50.9877 51.3824 50.8599 51.3304C50.7322 51.2784 50.5954 51.2523 50.4575 51.2535Z" fill="#002B68"/>
<path d="M50.4575 44.7519C50.1793 44.7519 49.9125 44.8624 49.7157 45.0592C49.519 45.256 49.4085 45.5229 49.4085 45.8012C49.4085 46.0795 49.519 46.3464 49.7157 46.5432C49.9125 46.74 50.1793 46.8506 50.4575 46.8506L46.1724 51.1373V53.3611C46.1741 53.567 46.2367 53.7678 46.3521 53.9382C46.4676 54.1087 46.6308 54.2412 46.8213 54.3192C47.0117 54.3972 47.221 54.4171 47.4228 54.3765C47.6246 54.3359 47.8099 54.2366 47.9554 54.091C48.1009 53.9454 48.2002 53.76 48.2408 53.5582C48.2814 53.3563 48.2615 53.147 48.1835 52.9564C48.1056 52.7659 47.9731 52.6026 47.8027 52.4871C47.6323 52.3716 47.4316 52.309 47.2258 52.3073L51.5109 48.0205V45.7968C51.5109 45.6588 51.4836 45.5222 51.4305 45.3948C51.3775 45.2675 51.2998 45.1519 51.2018 45.0547C51.1039 44.9576 50.9877 44.8808 50.8599 44.8288C50.7322 44.7768 50.5954 44.7507 50.4575 44.7519Z" fill="#002B68"/>
<path d="M15.3367 58.8089C15.3367 58.5306 15.2262 58.2637 15.0295 58.0669C14.8327 57.8701 14.5659 57.7595 14.2877 57.7595C14.0095 57.7595 13.7427 57.8701 13.546 58.0669C13.3493 58.2637 13.2388 58.5306 13.2388 58.8089V61.0326L17.5239 65.3194C17.3173 65.3194 17.1154 65.3807 16.9436 65.4955C16.7718 65.6103 16.638 65.7735 16.5589 65.9644C16.4798 66.1554 16.4592 66.3655 16.4995 66.5681C16.5398 66.7708 16.6392 66.957 16.7853 67.1032C16.9314 67.2493 17.1175 67.3488 17.3201 67.3891C17.5227 67.4294 17.7327 67.4087 17.9236 67.3297C18.1145 67.2506 18.2776 67.1166 18.3924 66.9448C18.5071 66.773 18.5684 66.571 18.5684 66.3643V64.1405L14.2833 59.8538C14.4212 59.855 14.558 59.8288 14.6857 59.7768C14.8135 59.7248 14.9297 59.6481 15.0276 59.5509C15.1256 59.4538 15.2033 59.3382 15.2563 59.2108C15.3094 59.0835 15.3367 58.9469 15.3367 58.8089Z" fill="#002B68"/>
<path d="M15.3367 52.2984C15.3367 52.0201 15.2262 51.7532 15.0295 51.5564C14.8327 51.3596 14.5659 51.249 14.2877 51.249C14.0095 51.249 13.7427 51.3596 13.546 51.5564C13.3493 51.7532 13.2388 52.0201 13.2388 52.2984V54.5221L17.5239 58.8089C17.3173 58.8089 17.1154 58.8701 16.9436 58.985C16.7718 59.0998 16.638 59.263 16.5589 59.4539C16.4798 59.6448 16.4592 59.8549 16.4995 60.0576C16.5398 60.2603 16.6392 60.4465 16.7853 60.5926C16.9314 60.7387 17.1175 60.8383 17.3201 60.8786C17.5227 60.9189 17.7327 60.8982 17.9236 60.8191C18.1145 60.74 18.2776 60.6061 18.3924 60.4343C18.5071 60.2624 18.5684 60.0604 18.5684 59.8538V57.63L14.2833 53.3433C14.4212 53.3445 14.558 53.3183 14.6857 53.2663C14.8135 53.2143 14.9297 53.1376 15.0276 53.0404C15.1256 52.9433 15.2033 52.8277 15.2563 52.7003C15.3094 52.573 15.3367 52.4364 15.3367 52.2984Z" fill="#002B68"/>
<path d="M15.3367 45.7968C15.3367 45.5185 15.2262 45.2516 15.0295 45.0548C14.8327 44.858 14.5659 44.7474 14.2877 44.7474C14.0095 44.7474 13.7427 44.858 13.546 45.0548C13.3493 45.2516 13.2388 45.5185 13.2388 45.7968V48.0205L17.5239 52.3073C17.3173 52.3073 17.1154 52.3686 16.9436 52.4834C16.7718 52.5982 16.638 52.7614 16.5589 52.9523C16.4798 53.1432 16.4592 53.3533 16.4995 53.556C16.5398 53.7587 16.6392 53.9449 16.7853 54.091C16.9314 54.2371 17.1175 54.3367 17.3201 54.377C17.5227 54.4173 17.7327 54.3966 17.9236 54.3175C18.1145 54.2384 18.2776 54.1045 18.3924 53.9327C18.5071 53.7608 18.5684 53.5588 18.5684 53.3522V51.1284L14.2833 46.8417C14.4212 46.8429 14.558 46.8167 14.6857 46.7647C14.8135 46.7127 14.9297 46.636 15.0276 46.5388C15.1256 46.4417 15.2033 46.3261 15.2563 46.1987C15.3094 46.0714 15.3367 45.9348 15.3367 45.7968Z" fill="#002B68"/>
<path d="M25.5858 15.2268V25.6401H38.9857V15.2268C38.9857 15.117 39.0287 15.0116 39.1054 14.9331C39.1822 14.8547 39.2866 14.8094 39.3964 14.8071H40.2177V13.2353H32.9598V11.6545H31.6207V13.2353H24.3359V14.8071H25.1751C25.2848 14.8094 25.3893 14.8547 25.466 14.9331C25.5428 15.0116 25.5858 15.117 25.5858 15.2268ZM27.1481 14.8071H37.4234V24.0682H27.1481V14.8071Z" fill="#002B68"/>
<path d="M64.3661 25.8723L57.7599 32.481L52.6445 20.2459C52.6255 20.1997 52.6106 20.1519 52.5999 20.1031C52.553 19.9081 52.575 19.703 52.6624 19.5226L53.5105 17.8168L51.9214 17.4863L50.2609 20.8264L41.4943 38.42H23.2557L14.4891 20.8264L12.8197 17.4774L11.2306 17.8079L12.0787 19.5136C12.1318 19.6261 12.1616 19.7482 12.1662 19.8726C12.1708 19.9969 12.1501 20.1209 12.1055 20.237L6.99011 32.4721L0.383876 25.8634L0 27.712L1.39267 29.1052C1.55706 29.2683 1.65016 29.4899 1.65156 29.7214V45.5645L10.9896 54.9061C11.0607 54.9762 11.1509 55.0238 11.2489 55.043C11.3469 55.0622 11.4484 55.0521 11.5407 55.0141C11.633 54.976 11.7121 54.9116 11.768 54.8288C11.824 54.7461 11.8544 54.6487 11.8555 54.5488V39.5631L19.6937 47.4043L19.7116 64.587C19.7139 65.3324 20.011 66.0465 20.5378 66.5736C21.0647 67.1007 21.7786 67.3978 22.5237 67.4002H30.1566C30.5409 67.4025 30.9088 67.5569 31.1797 67.8297C31.4507 68.1024 31.6028 68.4713 31.6028 68.8559V69.2042H33.174V68.8559C33.1763 68.4729 33.3295 68.1062 33.6002 67.8354C33.8709 67.5646 34.2374 67.4114 34.6202 67.4091H42.2531C42.9982 67.4067 43.7121 67.1096 44.239 66.5825C44.7658 66.0555 45.0629 65.3413 45.0652 64.5959L45.0474 47.4221L52.8945 39.5631V54.5488C52.8956 54.6487 52.926 54.7461 52.982 54.8288C53.0379 54.9116 53.117 54.976 53.2093 55.0141C53.3017 55.0521 53.4031 55.0622 53.5011 55.043C53.5991 55.0238 53.6893 54.9762 53.7604 54.9061L63.0984 45.5645V29.7214C63.0998 29.4899 63.1929 29.2683 63.3573 29.1052L64.75 27.712L64.3661 25.8723ZM10.2843 51.9768L3.22277 44.9215V30.9271L10.2843 37.9913V51.9768ZM10.7664 36.2498L8.18637 33.6777L13.1857 21.7284L18.6135 32.6329L18.551 32.6061L14.6944 40.1882L10.7664 36.2498ZM19.6937 38.42V45.1805L15.8639 41.3492L19.4527 34.3029L21.506 38.42H19.6937ZM21.2649 39.7685H43.4672V48.4492H21.2649V39.7685ZM21.2739 49.7263C21.2739 49.6031 21.3228 49.485 21.4098 49.3979C21.4969 49.3108 21.615 49.2619 21.7381 49.2619H43.0119C43.135 49.2619 43.2531 49.3108 43.3402 49.3979C43.4272 49.485 43.4762 49.6031 43.4762 49.7263V56.8619H41.2443V58.7106H40.9765L40.5391 55.0936L41.1997 54.1202V51.2355H39.191L39.0036 52.6109H38.9321L38.5572 51.2355H36.977L36.6021 52.6109H36.5307L36.3432 51.2355H34.3256V54.1202L34.9862 55.0936L34.5488 58.7106H34.156V56.8619H30.5404V58.7106H30.1387L29.7013 55.0936L30.3619 54.1202V51.2355H28.3443L28.1568 52.6109H28.0854L27.7105 51.2355H26.1303L25.7554 52.6109H25.684L25.4965 51.2355H23.47V54.1202L24.1306 55.0936L23.6932 58.7106H23.4343V56.8619H21.2739V49.7263ZM40.0838 58.7106H39.4588V56.8619H36.0129V58.7106H35.4594L35.9236 54.8704L35.2273 53.8523V52.1376H35.5665L35.754 53.5129H37.2895L37.6645 52.1376H37.8787L38.2537 53.5129H39.7892L39.9766 52.1376H40.3159V53.8523L39.6195 54.8704L40.0838 58.7106ZM29.2281 58.7106H28.6835V56.8619H25.2465V58.7106H24.6127L25.0769 54.8704L24.3716 53.8433V52.1376H24.7109L24.8984 53.5129H26.4339L26.8088 52.1376H27.0231L27.398 53.5129H28.9335L29.121 52.1376H29.4602V53.8523L28.7639 54.8704L29.2281 58.7106ZM32.3795 66.8286C32.097 66.5169 31.7526 66.2677 31.3683 66.097C30.9839 65.9263 30.5682 65.8378 30.1476 65.8373C30.4869 63.3813 31.8885 62.4883 32.3527 62.3096C32.8258 62.4883 34.2274 63.3903 34.5577 65.8373C34.1462 65.8447 33.7405 65.9364 33.3658 66.1069C32.9912 66.2775 32.6554 66.5231 32.3795 66.8286ZM42.2442 65.8373H35.9236C35.4683 61.8988 32.6384 61.2022 32.5134 61.1754C32.4164 61.1536 32.3158 61.1536 32.2188 61.1754C32.0849 61.2022 29.2638 61.8899 28.8085 65.8373H22.5237C22.1946 65.8373 21.8789 65.7065 21.6462 65.4737C21.4135 65.2409 21.2828 64.9251 21.2828 64.5959V58.2194C21.2828 58.1584 21.2948 58.098 21.3181 58.0417C21.3414 57.9853 21.3756 57.9341 21.4187 57.891C21.4619 57.8479 21.513 57.8137 21.5694 57.7903C21.6257 57.767 21.686 57.755 21.747 57.755H22.5594V59.6036H26.1571V57.755H27.8087V59.6036H31.451V57.755H33.2811V59.6036H36.9235V57.755H38.575V59.6036H42.1728V57.755H43.0387C43.0997 57.755 43.16 57.767 43.2164 57.7903C43.2727 57.8137 43.3239 57.8479 43.367 57.891C43.4101 57.9341 43.4443 57.9853 43.4676 58.0417C43.4909 58.098 43.5029 58.1584 43.5029 58.2194V64.5959C43.5029 64.7604 43.4703 64.9233 43.4068 65.0751C43.3433 65.2269 43.2503 65.3646 43.1332 65.4801C43.0161 65.5956 42.8772 65.6866 42.7245 65.748C42.5719 65.8093 42.4086 65.8397 42.2442 65.8373ZM45.0474 45.1895V38.42H43.244L45.2973 34.3029L48.8861 41.3492L45.0474 45.1895ZM50.0556 40.1882L46.1901 32.6061L46.1276 32.6329L51.5554 21.7284L56.5547 33.6777L53.9836 36.2498L50.0556 40.1882ZM61.5272 44.9215L54.4657 51.9768V37.9913L61.5272 30.9271V44.9215Z" fill="#002B68"/>
<path d="M32.7188 44.8233H31.8618L30.6655 41.778H33.9061L32.7188 44.8233Z" fill="#002B68"/>
<path d="M31.8618 45.6718H32.7188L33.9061 48.7172H30.6655L31.8618 45.6718Z" fill="#002B68"/>
<path d="M31.8621 44.8233V45.6717L28.8179 46.8684V43.6266L31.8621 44.8233Z" fill="#002B68"/>
<path d="M32.7095 45.6717V44.8233L35.7626 43.6266V46.8684L32.7095 45.6717Z" fill="#002B68"/>
<path d="M32.7094 44.8234H31.8613V45.6673H32.7094V44.8234Z" fill="#002B68"/>
<path fill-rule="evenodd" clip-rule="evenodd" d="M38.5752 33.3473H26.1484L24.9521 30.9807L27.5946 29.4267L29.9693 30.8021V32.0345H34.7276V30.8021L37.1022 29.4267L39.7447 30.9807L38.5485 33.3473H38.5752ZM31.237 30.8021V29.9894L27.6214 27.8728L23.0327 30.4806L25.8002 35.9283V37.2769H38.9234V35.9283L41.6909 30.4806L37.1112 27.8728L33.4956 29.9894V30.8021H31.237ZM37.2718 35.9283H27.4518L26.8447 34.7137H37.8878L37.2718 35.9283Z" fill="#002B68"/>
<path d="M32.9774 26.9708H31.5669V31.4925H32.9774V26.9708Z" fill="#002B68"/>
<path d="M33.8522 28.0336H30.6919V29.3696H33.8522V28.0336Z" fill="#002B68"/>
<path d="M32.282 8.98481L30.4766 10.7909L32.2813 12.5963L34.0867 10.7903L32.282 8.98481Z" fill="#002B68"/>
</svg>
