<svg width="16" height="4" viewBox="0 0 16 4" fill="none" xmlns="http://www.w3.org/2000/svg">
<path d="M12 2C12 1.60444 12.1173 1.21776 12.3371 0.888861C12.5568 0.559963 12.8692 0.303617 13.2346 0.152242C13.6001 0.000866562 14.0022 -0.0387401 14.3902 0.0384303C14.7781 0.115601 15.1345 0.306082 15.4142 0.585787C15.6939 0.865492 15.8844 1.22186 15.9616 1.60982C16.0387 1.99778 15.9991 2.39992 15.8478 2.76537C15.6964 3.13082 15.44 3.44318 15.1111 3.66294C14.7822 3.8827 14.3956 4 14 4C13.4696 4 12.9609 3.78929 12.5858 3.41421C12.2107 3.03914 12 2.53043 12 2ZM6 2C6 1.60444 6.1173 1.21776 6.33706 0.888861C6.55682 0.559963 6.86918 0.303617 7.23463 0.152242C7.60009 0.000866562 8.00222 -0.0387401 8.39018 0.0384303C8.77814 0.115601 9.13451 0.306082 9.41421 0.585787C9.69392 0.865492 9.8844 1.22186 9.96157 1.60982C10.0387 1.99778 9.99913 2.39992 9.84776 2.76537C9.69638 3.13082 9.44004 3.44318 9.11114 3.66294C8.78224 3.8827 8.39556 4 8 4C7.46957 4 6.96086 3.78929 6.58579 3.41421C6.21071 3.03914 6 2.53043 6 2ZM0 2C0 1.60444 0.117298 1.21776 0.337061 0.888861C0.556824 0.559963 0.869181 0.303617 1.23463 0.152242C1.60009 0.000866562 2.00222 -0.0387401 2.39018 0.0384303C2.77814 0.115601 3.13451 0.306082 3.41421 0.585787C3.69392 0.865492 3.8844 1.22186 3.96157 1.60982C4.03874 1.99778 3.99913 2.39992 3.84776 2.76537C3.69638 3.13082 3.44004 3.44318 3.11114 3.66294C2.78224 3.8827 2.39556 4 2 4C1.46957 4 0.960859 3.78929 0.585786 3.41421C0.210714 3.03914 0 2.53043 0 2Z" fill="white" fill-opacity="0.7"/>
</svg>
