<svg width="16" height="5" viewBox="0 0 16 5" fill="none" xmlns="http://www.w3.org/2000/svg">
<path d="M12 2.5C12 2.10444 12.1173 1.71776 12.3371 1.38886C12.5568 1.05996 12.8692 0.803617 13.2346 0.652242C13.6001 0.500867 14.0022 0.46126 14.3902 0.53843C14.7781 0.615601 15.1345 0.806082 15.4142 1.08579C15.6939 1.36549 15.8844 1.72186 15.9616 2.10982C16.0387 2.49778 15.9991 2.89992 15.8478 3.26537C15.6964 3.63082 15.44 3.94318 15.1111 4.16294C14.7822 4.3827 14.3956 4.5 14 4.5C13.4696 4.5 12.9609 4.28929 12.5858 3.91421C12.2107 3.53914 12 3.03043 12 2.5ZM6 2.5C6 2.10444 6.1173 1.71776 6.33706 1.38886C6.55682 1.05996 6.86918 0.803617 7.23463 0.652242C7.60009 0.500867 8.00222 0.46126 8.39018 0.53843C8.77814 0.615601 9.13451 0.806082 9.41421 1.08579C9.69392 1.36549 9.8844 1.72186 9.96157 2.10982C10.0387 2.49778 9.99913 2.89992 9.84776 3.26537C9.69638 3.63082 9.44004 3.94318 9.11114 4.16294C8.78224 4.3827 8.39556 4.5 8 4.5C7.46957 4.5 6.96086 4.28929 6.58579 3.91421C6.21071 3.53914 6 3.03043 6 2.5ZM0 2.5C0 2.10444 0.117298 1.71776 0.337061 1.38886C0.556824 1.05996 0.869181 0.803617 1.23463 0.652242C1.60009 0.500867 2.00222 0.46126 2.39018 0.53843C2.77814 0.615601 3.13451 0.806082 3.41421 1.08579C3.69392 1.36549 3.8844 1.72186 3.96157 2.10982C4.03874 2.49778 3.99913 2.89992 3.84776 3.26537C3.69638 3.63082 3.44004 3.94318 3.11114 4.16294C2.78224 4.3827 2.39556 4.5 2 4.5C1.46957 4.5 0.960859 4.28929 0.585786 3.91421C0.210714 3.53914 0 3.03043 0 2.5Z" fill="#3B4256"/>
</svg>
