<svg width="1440" height="4411" viewBox="0 0 1440 4411" fill="none" xmlns="http://www.w3.org/2000/svg">
<g opacity="0.07">
<path d="M1079.61 360.367V417.523H1022.48V360.367H1079.61ZM1080.94 359.038H1021.15V418.853H1080.94V359.038ZM1139.41 300.552V357.708H1082.27V300.552H1139.41ZM1140.74 299.223H1080.94V359.038H1140.74V299.223ZM1438.24 300.552V357.708H1381.18C1381.55 342.57 1387.53 328.391 1398.31 317.684C1409.01 306.977 1423.18 300.921 1438.24 300.552ZM1439.57 299.223C1406.57 299.223 1379.85 326.029 1379.85 359.038H1439.57V299.223Z" fill="black"/>
<path d="M1378.52 300.552V357.709H1321.46C1321.83 342.57 1327.81 328.392 1338.58 317.684C1349.29 306.977 1363.46 300.921 1378.52 300.552ZM1379.85 299.223C1346.85 299.223 1320.13 326.029 1320.13 359.038H1379.85V299.223ZM1438.24 360.367V417.524H1381.18C1381.55 402.385 1387.53 388.207 1398.31 377.499C1409.01 366.792 1423.18 360.736 1438.24 360.367ZM1439.57 359.038C1406.57 359.038 1379.85 385.844 1379.85 418.853H1439.57V359.038Z" fill="black"/>
<path d="M1169.23 330.459C1168.57 345.154 1156.76 356.969 1142.07 357.634C1142.81 343.013 1154.62 331.197 1169.23 330.459ZM1170.64 329.13C1154.1 329.13 1140.74 342.496 1140.74 359.038C1157.2 359.038 1170.64 345.597 1170.64 329.13ZM1142.07 300.552C1156.76 301.217 1168.5 313.032 1169.24 327.727C1154.62 327.063 1142.81 315.247 1142.07 300.552ZM1140.74 299.149C1140.74 315.69 1154.1 329.056 1170.64 329.056C1170.64 312.589 1157.2 299.149 1140.74 299.149ZM1079.54 240.737C1078.88 255.432 1067.06 267.248 1052.37 267.912C1053.11 253.217 1064.92 241.402 1079.54 240.737ZM1080.94 239.334C1064.41 239.334 1051.04 252.7 1051.04 269.241C1067.58 269.315 1080.94 255.875 1080.94 239.334ZM1052.45 270.644C1067.14 271.309 1078.88 283.124 1079.61 297.82C1064.92 297.155 1053.11 285.339 1052.45 270.644ZM1051.04 269.315C1051.04 285.857 1064.41 299.223 1080.94 299.223C1080.94 282.681 1067.58 269.315 1051.04 269.315Z" fill="black"/>
<path d="M1049.64 270.644C1048.98 285.339 1037.17 297.155 1022.48 297.82C1023.21 283.198 1035.03 271.383 1049.64 270.644ZM1051.05 269.315C1034.51 269.315 1021.15 282.681 1021.15 299.223C1037.68 299.223 1051.05 285.783 1051.05 269.315ZM1022.55 240.737C1037.24 241.402 1048.98 253.217 1049.72 267.913C1035.03 267.248 1023.21 255.432 1022.55 240.737ZM1021.15 239.334C1021.15 255.875 1034.51 269.241 1051.05 269.241C1051.05 252.774 1037.68 239.334 1021.15 239.334ZM1258.93 121.033C1258.26 135.728 1246.45 147.544 1231.76 148.208C1232.43 133.587 1244.24 121.771 1258.93 121.033ZM1260.26 119.704C1243.72 119.704 1230.36 133.07 1230.36 149.611C1246.9 149.611 1260.26 136.245 1260.26 119.704Z" fill="black"/>
<path d="M1231.76 151.014C1246.45 151.679 1258.19 163.494 1258.93 178.189C1244.24 177.451 1232.43 165.636 1231.76 151.014ZM1230.36 149.611C1230.36 166.153 1243.72 179.519 1260.26 179.519C1260.26 162.977 1246.9 149.611 1230.36 149.611ZM1229.03 151.014C1228.37 165.71 1216.55 177.525 1201.86 178.189C1202.53 163.494 1214.34 151.679 1229.03 151.014ZM1230.36 149.611C1213.82 149.611 1200.46 162.977 1200.46 179.519C1217 179.519 1230.36 166.153 1230.36 149.611Z" fill="black"/>
<path d="M1201.86 121.033C1216.56 121.698 1228.29 133.513 1229.03 148.209C1214.34 147.544 1202.53 135.728 1201.86 121.033ZM1200.46 119.704C1200.46 136.245 1213.82 149.612 1230.36 149.612C1230.36 133.07 1217 119.704 1200.46 119.704ZM1438.32 180.848C1437.95 195.986 1431.97 210.164 1421.19 220.872C1410.49 231.58 1396.31 237.635 1381.18 238.004C1381.55 222.866 1387.53 208.688 1398.31 197.98C1409.08 187.272 1423.18 181.217 1438.32 180.848ZM1439.65 179.518C1406.65 179.518 1379.85 206.324 1379.85 239.333C1412.92 239.333 1439.65 212.601 1439.65 179.518ZM1381.25 240.737C1396.39 241.106 1410.49 247.161 1421.27 257.869C1431.97 268.577 1438.02 282.755 1438.39 297.893C1423.26 297.524 1409.16 291.468 1398.38 280.761C1387.6 269.979 1381.55 255.801 1381.25 240.737ZM1379.92 239.333C1379.92 272.416 1406.72 299.148 1439.72 299.148C1439.65 266.139 1412.92 239.333 1379.92 239.333Z" fill="black"/>
<path d="M1378.52 240.737C1378.15 255.875 1372.17 270.053 1361.39 280.761C1350.69 291.468 1336.52 297.524 1321.38 297.893C1321.75 282.755 1327.73 268.577 1338.51 257.869C1349.29 247.087 1363.46 241.032 1378.52 240.737ZM1379.92 239.333C1346.93 239.333 1320.13 266.139 1320.13 299.148C1353.13 299.222 1379.92 272.416 1379.92 239.333ZM1321.46 180.848C1336.59 181.217 1350.69 187.272 1361.47 197.98C1372.17 208.688 1378.23 222.866 1378.6 238.004C1363.46 237.635 1349.36 231.58 1338.58 220.872C1327.81 210.164 1321.83 195.986 1321.46 180.848ZM1320.13 179.519C1320.13 212.602 1346.93 239.333 1379.92 239.333C1379.92 206.324 1353.13 179.519 1320.13 179.519ZM1335.04 91.1256C1342.57 91.1256 1348.62 97.2548 1348.62 104.713C1348.62 112.246 1342.5 118.301 1335.04 118.301C1327.51 118.301 1321.46 112.172 1321.46 104.713C1321.46 97.2548 1327.51 91.1256 1335.04 91.1256ZM1335.04 89.7966C1326.77 89.7966 1320.05 96.5164 1320.05 104.787C1320.05 113.058 1326.77 119.778 1335.04 119.778C1343.31 119.778 1350.03 113.058 1350.03 104.787C1349.95 96.5164 1343.31 89.7966 1335.04 89.7966Z" fill="black"/>
<path d="M1335.04 61.2189C1342.57 61.2189 1348.62 67.3481 1348.62 74.8063C1348.62 82.3389 1342.5 88.3942 1335.04 88.3942C1327.51 88.3942 1321.46 82.265 1321.46 74.8063C1321.46 67.3481 1327.51 61.2189 1335.04 61.2189ZM1335.04 59.8899C1326.77 59.8899 1320.05 66.6097 1320.05 74.8802C1320.05 83.1513 1326.77 89.8711 1335.04 89.8711C1343.31 89.8711 1350.03 83.1513 1350.03 74.8802C1349.95 66.5357 1343.31 59.8899 1335.04 59.8899ZM1364.94 91.1256C1372.47 91.1256 1378.52 97.2548 1378.52 104.713C1378.52 112.246 1372.39 118.301 1364.94 118.301C1357.41 118.301 1351.35 112.172 1351.35 104.713C1351.35 97.2548 1357.41 91.1256 1364.94 91.1256ZM1364.94 89.7966C1356.67 89.7966 1349.95 96.5164 1349.95 104.787C1349.95 113.058 1356.67 119.778 1364.94 119.778C1373.21 119.778 1379.92 113.058 1379.92 104.787C1379.85 96.5164 1373.21 89.7966 1364.94 89.7966Z" fill="black"/>
<path d="M1364.94 61.2184C1372.47 61.2184 1378.52 67.3476 1378.52 74.8058C1378.52 82.3379 1372.39 88.3937 1364.94 88.3937C1357.41 88.3937 1351.35 82.2645 1351.35 74.8058C1351.35 67.3476 1357.41 61.2184 1364.94 61.2184ZM1364.94 59.8889C1356.67 59.8889 1349.95 66.6092 1349.95 74.8798C1349.95 83.1503 1356.67 89.8706 1364.94 89.8706C1373.21 89.8706 1379.92 83.1503 1379.92 74.8798C1379.85 66.5352 1373.21 59.8889 1364.94 59.8889ZM1245.35 330.976L1258.34 343.973L1245.27 357.044L1232.28 344.047L1245.35 330.976ZM1245.35 329.13L1230.36 344.121L1245.27 359.038L1260.26 344.047L1245.35 329.13ZM1215.45 331.05L1228.44 344.047L1215.37 357.118L1202.38 344.121L1215.45 331.05ZM1215.45 329.13L1200.54 344.121L1215.45 359.038L1230.43 344.047L1215.45 329.13ZM1245.35 301.069L1258.34 314.066L1245.27 327.137L1232.28 314.14L1245.35 301.069ZM1245.35 299.223L1230.36 314.214L1245.27 329.13L1260.26 314.14L1245.35 299.223ZM1215.52 301.069L1228.51 314.066L1215.45 327.137L1202.46 314.14L1215.52 301.069ZM1215.52 299.223L1200.54 314.214L1215.45 329.13L1230.43 314.14L1215.52 299.223ZM1185.55 390.864L1198.54 403.861L1185.48 416.932L1172.48 403.935L1185.55 390.864ZM1185.55 388.945L1170.56 403.935L1185.48 418.852L1200.46 403.861L1185.55 388.945ZM1155.73 390.864L1168.72 403.861L1155.65 416.932L1142.66 403.935L1155.73 390.864ZM1155.73 389.018L1140.74 403.935L1155.65 418.852L1170.64 403.861L1155.73 389.018ZM1185.62 360.957L1198.62 373.954L1185.55 387.025L1172.56 374.028L1185.62 360.957ZM1185.62 359.037L1170.64 374.028L1185.55 388.945L1200.53 373.954L1185.62 359.037ZM1155.73 360.957L1168.72 373.954L1155.65 387.025L1142.66 374.028L1155.73 360.957ZM1155.73 359.037L1140.74 374.028L1155.65 388.945L1170.64 373.954L1155.73 359.037Z" fill="black"/>
<path d="M1259 360.367C1258.78 375.284 1246.68 387.394 1231.76 387.615V360.367H1259ZM1260.33 359.037H1230.43V388.945H1231.39C1247.41 388.945 1260.33 375.948 1260.33 359.923V359.037Z" fill="black"/>
<path d="M1229.11 360.367V387.616C1214.19 387.394 1202.09 375.283 1201.87 360.367H1229.11ZM1230.43 359.038H1200.54V359.997C1200.54 376.022 1213.53 389.019 1229.47 389.019H1230.43V359.038ZM1258.93 390.348C1258.27 405.043 1246.45 416.859 1231.76 417.523C1232.43 402.828 1244.24 391.012 1258.93 390.348ZM1260.33 388.945C1243.8 388.945 1230.43 402.311 1230.43 418.852C1246.9 418.852 1260.33 405.486 1260.33 388.945ZM1201.86 390.348C1216.56 391.012 1228.37 402.828 1229.03 417.523C1221.94 417.228 1215.3 414.274 1210.21 409.179C1205.11 404.083 1202.23 397.437 1201.86 390.348ZM1200.54 388.945C1200.54 405.486 1213.9 418.852 1230.43 418.852C1230.43 402.385 1217 388.945 1200.54 388.945ZM1138.16 245.98V277.585L1119.4 296.047V264.441L1138.16 245.98ZM1139.48 242.878L1118.08 263.924V299.222L1139.48 278.176V242.878ZM1143.25 245.98L1162 264.441V296.047L1143.25 277.585V245.98ZM1141.92 242.878V278.176L1163.33 299.222V263.924L1141.92 242.878ZM1177.95 241.918L1197.21 260.601H1165.62L1146.35 241.918H1177.95ZM1178.54 240.589H1143.1L1165.1 261.93H1200.54L1178.54 240.589ZM1197.21 218.14L1177.95 236.823H1146.35L1165.62 218.14H1197.21ZM1200.54 216.81H1165.1L1143.1 238.152H1178.54L1200.54 216.81ZM1162.07 182.694V214.3L1143.32 232.761V201.155L1162.07 182.694ZM1163.4 179.518L1141.99 200.564V235.862L1163.4 214.817V179.518ZM1119.4 182.694L1138.16 201.155V232.761L1119.4 214.3V182.694ZM1118.08 179.518V214.817L1139.48 235.862V200.564L1118.08 179.518ZM1115.86 218.14L1135.13 236.823H1103.53L1084.27 218.14H1115.86ZM1116.38 216.81H1080.94L1102.94 238.152H1138.38L1116.38 216.81ZM1135.13 241.918L1115.86 260.601H1084.19L1103.46 241.918H1135.13ZM1138.38 240.589H1102.94L1080.94 261.93H1116.38L1138.38 240.589Z" fill="black"/>
<path d="M1316.88 180.848L1201.79 295.973V180.848H1316.88ZM1320.05 179.519H1200.46V299.223L1320.05 179.519ZM1288.83 150.941C1288.16 165.636 1276.35 177.525 1261.66 178.189V150.941H1288.83ZM1290.16 149.611H1260.33V179.519C1276.79 179.519 1290.16 166.153 1290.16 149.611Z" fill="black"/>
<path d="M1318.73 150.941C1318.06 165.636 1306.25 177.525 1291.56 178.189V150.941H1318.73ZM1320.05 149.611H1290.16V179.519C1306.69 179.519 1320.05 166.153 1320.05 149.611ZM1288.83 120.959C1288.16 135.654 1276.35 147.544 1261.66 148.208V120.959H1288.83ZM1290.16 119.704H1260.33V149.612C1276.79 149.612 1290.16 136.172 1290.16 119.704Z" fill="black"/>
<path d="M1318.73 120.959C1318.06 135.654 1306.25 147.544 1291.56 148.208V120.959H1318.73ZM1320.05 119.704H1290.16L1290.16 149.611C1306.69 149.611 1320.05 136.172 1320.05 119.704ZM1318.72 360.441C1318.36 367.53 1315.48 374.25 1310.38 379.271C1305.29 384.366 1298.65 387.247 1291.56 387.616C1292.3 372.92 1304.11 361.105 1318.72 360.441ZM1320.13 359.038C1303.59 359.038 1290.23 372.404 1290.23 388.945C1306.69 388.945 1320.13 375.579 1320.13 359.038ZM1318.72 390.348C1318.36 397.437 1315.48 404.157 1310.38 409.179C1305.29 414.274 1298.65 417.154 1291.56 417.523C1292.3 402.828 1304.11 391.012 1318.72 390.348ZM1320.13 388.945C1303.59 388.945 1290.23 402.311 1290.23 418.852C1306.69 418.852 1320.13 405.486 1320.13 388.945Z" fill="black"/>
<path d="M1261.66 390.348C1276.35 391.012 1288.16 402.828 1288.83 417.523C1274.14 416.859 1262.33 405.043 1261.66 390.348ZM1260.33 388.945C1260.33 405.486 1273.69 418.852 1290.23 418.852C1290.23 402.385 1276.79 388.945 1260.33 388.945ZM1261.66 360.441C1276.35 361.105 1288.16 372.92 1288.83 387.616C1274.14 386.877 1262.33 375.062 1261.66 360.441ZM1260.33 359.038C1260.33 375.579 1273.69 388.945 1290.23 388.945C1290.23 372.477 1276.8 359.038 1260.33 359.038ZM1318.73 300.552C1318.36 307.641 1315.48 314.361 1310.38 319.382C1305.29 324.478 1298.65 327.358 1291.56 327.727C1292.3 313.105 1304.11 301.29 1318.73 300.552ZM1320.13 299.222C1303.59 299.222 1290.23 312.588 1290.23 329.13C1306.69 329.13 1320.13 315.764 1320.13 299.222ZM1318.73 330.459C1318.36 337.548 1315.48 344.268 1310.38 349.29C1305.29 354.385 1298.65 357.265 1291.56 357.634C1292.3 343.013 1304.11 331.197 1318.73 330.459ZM1320.13 329.13C1303.59 329.13 1290.23 342.496 1290.23 359.037C1306.69 359.037 1320.13 345.671 1320.13 329.13ZM1261.66 330.459C1276.35 331.124 1288.16 342.939 1288.83 357.634C1274.14 356.97 1262.33 345.154 1261.66 330.459ZM1260.33 329.13C1260.33 345.671 1273.69 359.037 1290.23 359.037C1290.23 342.496 1276.79 329.13 1260.33 329.13Z" fill="black"/>
<path d="M1110.92 61.8818L1138.82 89.8696L1110.77 117.931L1082.86 89.9435L1110.92 61.8818ZM1110.92 59.9618L1081.02 89.9435L1110.84 119.777L1140.74 89.7956L1110.92 59.9618ZM1207.03 5.39079C1209.32 7.53212 1212.27 8.7137 1215.52 8.7137C1218.7 8.7137 1221.72 7.53212 1224.01 5.39079C1225.71 3.76605 1228.07 2.87975 1230.51 2.87975C1232.94 2.87975 1235.23 3.76605 1237 5.39079C1239.29 7.53212 1242.24 8.7137 1245.49 8.7137C1248.67 8.7137 1251.69 7.53212 1253.98 5.39079C1255.68 3.76605 1258.04 2.87975 1260.48 2.87975C1262.91 2.87975 1265.2 3.76605 1266.98 5.39079C1269.26 7.53212 1272.22 8.7137 1275.46 8.7137C1278.64 8.7137 1281.67 7.53212 1283.95 5.39079C1285.65 3.76605 1288.01 2.87975 1290.45 2.87975C1292.89 2.87975 1295.18 3.76605 1296.95 5.39079C1299.24 7.53212 1302.19 8.7137 1305.44 8.7137C1308.61 8.7137 1311.64 7.53212 1313.93 5.39079C1315.62 3.76605 1317.91 2.87975 1320.42 2.87975V0.221806C1317.32 0.221806 1314.3 1.32994 1311.93 3.54522C1310.24 5.16946 1307.95 6.05577 1305.44 6.05577C1303 6.05577 1300.71 5.16946 1298.94 3.54522C1296.58 1.32994 1293.55 0.221806 1290.45 0.221806C1287.35 0.221806 1284.32 1.32994 1281.96 3.54522C1280.26 5.16946 1277.9 6.05577 1275.46 6.05577C1273.03 6.05577 1270.74 5.16946 1268.97 3.54522C1266.61 1.32945 1263.58 0.221313 1260.48 0.221313C1257.38 0.221313 1254.35 1.32945 1251.99 3.54472C1250.29 5.16896 1247.93 6.05527 1245.49 6.05527C1243.06 6.05527 1240.77 5.16896 1239 3.54472C1236.63 1.32945 1233.61 0.221313 1230.51 0.221313C1227.41 0.221313 1224.38 1.32945 1222.02 3.54472C1220.32 5.16896 1217.96 6.05527 1215.52 6.05527C1213.08 6.05527 1210.8 5.16896 1209.02 3.54472C1206.66 1.32945 1203.64 0.221313 1200.54 0.221313V2.87975C1202.97 2.87975 1205.26 3.76605 1207.03 5.39079Z" fill="black"/>
<path d="M1207.03 13.9566C1209.32 16.0984 1212.27 17.2795 1215.52 17.2795C1218.7 17.2795 1221.72 16.0979 1224.01 13.9571C1225.71 12.3318 1228.07 11.446 1230.51 11.446C1232.94 11.446 1235.23 12.3318 1237 13.9566C1239.29 16.0984 1242.25 17.2795 1245.49 17.2795C1248.67 17.2795 1251.69 16.0979 1253.98 13.9571C1255.68 12.3318 1258.04 11.446 1260.48 11.446C1262.92 11.446 1265.2 12.3318 1266.98 13.9566C1269.26 16.0984 1272.22 17.2795 1275.47 17.2795C1278.64 17.2795 1281.67 16.0979 1283.96 13.9571C1285.65 12.3318 1288.02 11.446 1290.45 11.446C1292.89 11.446 1295.18 12.3318 1296.95 13.9566C1299.24 16.0984 1302.19 17.2795 1305.44 17.2795C1308.61 17.2795 1311.64 16.0979 1313.93 13.9571C1315.63 12.3318 1317.91 11.446 1320.42 11.446V8.7876C1317.32 8.7876 1314.3 9.89524 1311.93 12.11C1310.24 13.7352 1307.95 14.6211 1305.44 14.6211C1303 14.6211 1300.71 13.7352 1298.94 12.1105C1294.29 7.67996 1286.69 7.67996 1282.04 12.1105C1280.34 13.7352 1277.98 14.6211 1275.54 14.6211C1273.1 14.6211 1270.82 13.7352 1269.04 12.1105C1264.39 7.67996 1256.79 7.67996 1252.14 12.1105C1250.44 13.7352 1248.08 14.6211 1245.64 14.6211C1243.21 14.6211 1240.92 13.7352 1239.15 12.1105C1234.49 7.67996 1226.89 7.67996 1222.24 12.1105C1220.54 13.7352 1218.18 14.6211 1215.74 14.6211C1213.31 14.6211 1211.02 13.7352 1209.25 12.1105C1206.89 9.89524 1203.86 8.7876 1200.76 8.7876V11.446C1202.97 11.3721 1205.26 12.3318 1207.03 13.9566Z" fill="black"/>
<path d="M1311.56 20.6025C1309.87 22.2272 1307.58 23.1135 1305.07 23.1135C1302.63 23.1135 1300.34 22.2272 1298.57 20.6025C1293.92 16.1719 1286.32 16.1719 1281.67 20.6025C1279.97 22.2272 1277.61 23.1135 1275.17 23.1135C1272.73 23.1135 1270.45 22.2272 1268.67 20.6025C1264.02 16.1719 1256.42 16.1719 1251.77 20.6025C1250.07 22.2272 1247.71 23.1135 1245.27 23.1135C1242.84 23.1135 1240.55 22.2272 1238.78 20.6025C1234.12 16.1719 1226.52 16.1719 1221.87 20.6025C1220.17 22.2272 1217.81 23.1135 1215.37 23.1135C1212.94 23.1135 1210.65 22.2272 1208.88 20.6025C1206.52 18.3872 1203.49 17.28 1200.39 17.28V19.938C1202.82 19.938 1205.11 20.8243 1206.88 22.449C1209.17 24.5904 1212.13 25.7714 1215.37 25.7714C1218.55 25.7714 1221.57 24.5904 1223.86 22.449C1225.56 20.8243 1227.92 19.938 1230.36 19.938C1232.8 19.938 1235.08 20.8243 1236.86 22.449C1239.14 24.5904 1242.1 25.7714 1245.35 25.7714C1248.52 25.7714 1251.55 24.5904 1253.84 22.449C1255.53 20.8243 1257.9 19.938 1260.33 19.938C1262.77 19.938 1265.06 20.8243 1266.83 22.449C1269.12 24.5904 1272.07 25.7714 1275.32 25.7714C1278.49 25.7714 1281.52 24.5904 1283.81 22.449C1285.51 20.8243 1287.87 19.938 1290.3 19.938C1292.74 19.938 1295.03 20.8243 1296.8 22.449C1299.09 24.5904 1302.04 25.7714 1305.29 25.7714C1308.46 25.7714 1311.49 24.5904 1313.78 22.449C1315.48 20.8243 1317.77 19.938 1320.28 19.938V17.2795C1316.95 17.2795 1313.93 18.3872 1311.56 20.6025Z" fill="black"/>
<path d="M1311.56 29.1689C1309.87 30.7931 1307.58 31.6794 1305.07 31.6794C1302.63 31.6794 1300.34 30.7931 1298.57 29.1689C1293.92 24.7378 1286.32 24.7378 1281.67 29.1689C1279.97 30.7931 1277.61 31.6794 1275.17 31.6794C1272.73 31.6794 1270.45 30.7931 1268.67 29.1689C1264.02 24.7378 1256.42 24.7378 1251.77 29.1689C1250.07 30.7931 1247.71 31.6794 1245.27 31.6794C1242.84 31.6794 1240.55 30.7931 1238.78 29.1689C1234.12 24.7378 1226.52 24.7378 1221.87 29.1689C1220.17 30.7931 1217.81 31.6794 1215.37 31.6794C1212.94 31.6794 1210.65 30.7931 1208.88 29.1689C1206.52 26.9531 1203.49 25.8455 1200.39 25.8455V28.5039C1202.82 28.5039 1205.11 29.3902 1206.88 31.0149C1209.17 33.1563 1212.13 34.3378 1215.37 34.3378C1218.55 34.3378 1221.57 33.1563 1223.86 31.0149C1225.56 29.3902 1227.92 28.5039 1230.36 28.5039C1232.8 28.5039 1235.08 29.3902 1236.86 31.0149C1239.14 33.1563 1242.1 34.3378 1245.35 34.3378C1248.52 34.3378 1251.55 33.1563 1253.84 31.0149C1255.53 29.3902 1257.9 28.5039 1260.33 28.5039C1262.77 28.5039 1265.06 29.3902 1266.83 31.0149C1269.12 33.1563 1272.07 34.3378 1275.32 34.3378C1278.49 34.3378 1281.52 33.1563 1283.81 31.0149C1285.51 29.3902 1287.87 28.5039 1290.3 28.5039C1292.74 28.5039 1295.03 29.3902 1296.8 31.0149C1299.09 33.1563 1302.04 34.3378 1305.29 34.3378C1308.46 34.3378 1311.49 33.1563 1313.78 31.0149C1315.48 29.3902 1317.77 28.5039 1320.28 28.5039V25.8455C1316.95 25.8455 1313.93 26.8796 1311.56 29.1689Z" fill="black"/>
<path d="M1311.56 37.6607C1309.87 39.2854 1307.58 40.1717 1305.07 40.1717C1302.63 40.1717 1300.34 39.2854 1298.57 37.6607C1293.92 33.2301 1286.32 33.2301 1281.67 37.6607C1279.97 39.2854 1277.61 40.1717 1275.17 40.1717C1272.73 40.1717 1270.45 39.2854 1268.67 37.6607C1264.02 33.2301 1256.42 33.2301 1251.77 37.6607C1250.07 39.2854 1247.71 40.1717 1245.27 40.1717C1242.84 40.1717 1240.55 39.2854 1238.78 37.6607C1234.12 33.2301 1226.52 33.2301 1221.87 37.6607C1220.17 39.2854 1217.81 40.1717 1215.37 40.1717C1212.94 40.1717 1210.65 39.2854 1208.88 37.6607C1206.52 35.4454 1203.49 34.3378 1200.39 34.3378V36.9962C1202.82 36.9962 1205.11 37.8825 1206.88 39.5067C1209.17 41.6486 1212.13 42.8302 1215.37 42.8302C1218.55 42.8302 1221.57 41.6486 1223.86 39.5067C1225.56 37.8825 1227.92 36.9962 1230.36 36.9962C1232.8 36.9962 1235.08 37.8825 1236.86 39.5067C1239.14 41.6486 1242.1 42.8302 1245.35 42.8302C1248.52 42.8302 1251.55 41.6486 1253.84 39.5067C1255.53 37.8825 1257.9 36.9962 1260.33 36.9962C1262.77 36.9962 1265.06 37.8825 1266.83 39.5067C1269.12 41.6486 1272.07 42.8302 1275.32 42.8302C1278.49 42.8302 1281.52 41.6486 1283.81 39.5067C1285.51 37.8825 1287.87 36.9962 1290.3 36.9962C1292.74 36.9962 1295.03 37.8825 1296.8 39.5067C1299.09 41.6486 1302.04 42.8302 1305.29 42.8302C1308.46 42.8302 1311.49 41.6486 1313.78 39.5067C1315.48 37.8825 1317.77 36.9962 1320.28 36.9962V34.3378C1316.95 34.3378 1313.93 35.4454 1311.56 37.6607Z" fill="black"/>
<path d="M1311.56 46.2275C1309.87 47.8517 1307.58 48.738 1305.07 48.738C1302.63 48.738 1300.34 47.8517 1298.57 46.2275C1293.92 41.7964 1286.32 41.7964 1281.67 46.2275C1279.97 47.8517 1277.61 48.738 1275.17 48.738C1272.73 48.738 1270.45 47.8517 1268.67 46.2275C1264.02 41.7964 1256.42 41.7964 1251.77 46.2275C1250.07 47.8517 1247.71 48.738 1245.27 48.738C1242.84 48.738 1240.55 47.8517 1238.78 46.2275C1234.12 41.7964 1226.52 41.7964 1221.87 46.2275C1220.17 47.8517 1217.81 48.738 1215.37 48.738C1212.94 48.738 1210.65 47.8517 1208.88 46.2275C1206.52 44.0117 1203.49 42.9041 1200.39 42.9041V45.5625C1202.82 45.5625 1205.11 46.4488 1206.88 48.0735C1209.17 50.2149 1212.13 51.3964 1215.37 51.3964C1218.55 51.3964 1221.57 50.2149 1223.86 48.0735C1225.56 46.4488 1227.92 45.5625 1230.36 45.5625C1232.8 45.5625 1235.08 46.4488 1236.86 48.0735C1239.14 50.2149 1242.1 51.3964 1245.35 51.3964C1248.52 51.3964 1251.55 50.2149 1253.84 48.0735C1255.53 46.4488 1257.9 45.5625 1260.33 45.5625C1262.77 45.5625 1265.06 46.4488 1266.83 48.0735C1269.12 50.2149 1272.07 51.3964 1275.32 51.3964C1278.49 51.3964 1281.52 50.2149 1283.81 48.0735C1285.51 46.4488 1287.87 45.5625 1290.3 45.5625C1292.74 45.5625 1295.03 46.4488 1296.8 48.0735C1299.09 50.2149 1302.04 51.3964 1305.29 51.3964C1308.46 51.3964 1311.49 50.2149 1313.78 48.0735C1315.48 46.4488 1317.77 45.5625 1320.28 45.5625V42.9041C1316.95 42.9041 1313.93 44.0117 1311.56 46.2275Z" fill="black"/>
<path d="M1311.56 54.7194C1309.87 56.3441 1307.58 57.2304 1305.07 57.2304C1302.63 57.2304 1300.34 56.3441 1298.57 54.7194C1293.92 50.2888 1286.32 50.2888 1281.67 54.7194C1279.97 56.3441 1277.61 57.2304 1275.17 57.2304C1272.73 57.2304 1270.45 56.3441 1268.67 54.7194C1264.02 50.2888 1256.42 50.2888 1251.77 54.7194C1250.07 56.3441 1247.71 57.2304 1245.27 57.2304C1242.84 57.2304 1240.55 56.3441 1238.78 54.7194C1234.12 50.2888 1226.52 50.2888 1221.87 54.7194C1220.17 56.3441 1217.81 57.2304 1215.37 57.2304C1212.94 57.2304 1210.65 56.3441 1208.88 54.7194C1206.52 52.5041 1203.49 51.3965 1200.39 51.3965V54.0549C1202.82 54.0549 1205.11 54.9412 1206.88 56.5655C1209.17 58.7073 1212.13 59.8889 1215.37 59.8889C1218.55 59.8889 1221.57 58.7073 1223.86 56.5655C1225.56 54.9412 1227.92 54.0549 1230.36 54.0549C1232.8 54.0549 1235.08 54.9412 1236.86 56.5655C1239.14 58.7073 1242.1 59.8889 1245.35 59.8889C1248.52 59.8889 1251.55 58.7073 1253.84 56.5655C1255.53 54.9412 1257.9 54.0549 1260.33 54.0549C1262.77 54.0549 1265.06 54.9412 1266.83 56.5655C1269.12 58.7073 1272.07 59.8889 1275.32 59.8889C1278.49 59.8889 1281.52 58.7073 1283.81 56.5655C1285.51 54.9412 1287.87 54.0549 1290.3 54.0549C1292.74 54.0549 1295.03 54.9412 1296.8 56.5655C1299.09 58.7073 1302.04 59.8889 1305.29 59.8889C1308.46 59.8889 1311.49 58.7073 1313.78 56.5655C1315.48 54.9412 1317.77 54.0549 1320.28 54.0549V51.3965C1316.95 51.3965 1313.93 52.5041 1311.56 54.7194Z" fill="black"/>
<path d="M1311.56 63.2858C1309.87 64.9101 1307.58 65.7964 1305.07 65.7964C1302.63 65.7964 1300.34 64.9101 1298.57 63.2858C1293.92 58.8548 1286.32 58.8548 1281.67 63.2858C1279.97 64.9101 1277.61 65.7964 1275.17 65.7964C1272.73 65.7964 1270.45 64.9101 1268.67 63.2858C1264.02 58.8548 1256.42 58.8548 1251.77 63.2858C1250.07 64.9101 1247.71 65.7964 1245.27 65.7964C1242.84 65.7964 1240.55 64.9101 1238.78 63.2858C1234.12 58.8548 1226.52 58.8548 1221.87 63.2858C1220.17 64.9101 1217.81 65.7964 1215.37 65.7964C1212.94 65.7964 1210.65 64.9101 1208.88 63.2858C1206.52 61.07 1203.49 59.9624 1200.39 59.9624V62.6208C1202.82 62.6208 1205.11 63.5071 1206.88 65.1319C1209.17 67.2732 1212.13 68.4548 1215.37 68.4548C1218.55 68.4548 1221.57 67.2732 1223.86 65.1319C1225.56 63.5071 1227.92 62.6208 1230.36 62.6208C1232.8 62.6208 1235.08 63.5071 1236.86 65.1319C1239.14 67.2732 1242.1 68.4548 1245.35 68.4548C1248.52 68.4548 1251.55 67.2732 1253.84 65.1319C1255.53 63.5071 1257.9 62.6208 1260.33 62.6208C1262.77 62.6208 1265.06 63.5071 1266.83 65.1319C1269.12 67.2732 1272.07 68.4548 1275.32 68.4548C1278.49 68.4548 1281.52 67.2732 1283.81 65.1319C1285.51 63.5071 1287.87 62.6208 1290.3 62.6208C1292.74 62.6208 1295.03 63.5071 1296.8 65.1319C1299.09 67.2732 1302.04 68.4548 1305.29 68.4548C1308.46 68.4548 1311.49 67.2732 1313.78 65.1319C1315.48 63.5071 1317.77 62.6208 1320.28 62.6208V59.9624C1316.95 59.9624 1313.93 61.07 1311.56 63.2858Z" fill="black"/>
<path d="M1311.56 71.8516C1309.87 73.4763 1307.58 74.3622 1305.07 74.3622C1302.63 74.3622 1300.34 73.4763 1298.57 71.8516C1293.92 67.421 1286.32 67.421 1281.67 71.8516C1279.97 73.4763 1277.61 74.3622 1275.17 74.3622C1272.73 74.3622 1270.45 73.4763 1268.67 71.8516C1264.02 67.421 1256.42 67.421 1251.77 71.8516C1250.07 73.4763 1247.71 74.3622 1245.27 74.3622C1242.84 74.3622 1240.55 73.4763 1238.78 71.8516C1234.12 67.421 1226.52 67.421 1221.87 71.8516C1220.17 73.4763 1217.81 74.3622 1215.37 74.3622C1212.94 74.3622 1210.65 73.4763 1208.88 71.8516C1206.52 69.6363 1203.49 68.5287 1200.39 68.5287V71.1871C1202.82 71.1871 1205.11 72.0729 1206.88 73.6977C1209.17 75.8395 1212.13 77.0206 1215.37 77.0206C1218.55 77.0206 1221.57 75.8395 1223.86 73.6977C1225.56 72.0729 1227.92 71.1871 1230.36 71.1871C1232.8 71.1871 1235.08 72.0729 1236.86 73.6977C1239.14 75.8395 1242.1 77.0206 1245.35 77.0206C1248.52 77.0206 1251.55 75.8395 1253.84 73.6977C1255.53 72.0729 1257.9 71.1871 1260.33 71.1871C1262.77 71.1871 1265.06 72.0729 1266.83 73.6977C1269.12 75.8395 1272.07 77.0206 1275.32 77.0206C1278.49 77.0206 1281.52 75.8395 1283.81 73.6977C1285.51 72.0729 1287.87 71.1871 1290.3 71.1871C1292.74 71.1871 1295.03 72.0729 1296.8 73.6977C1299.09 75.8395 1302.04 77.0206 1305.29 77.0206C1308.46 77.0206 1311.49 75.8395 1313.78 73.6977C1315.48 72.0729 1317.77 71.1871 1320.28 71.1871V68.5287C1316.95 68.5287 1313.93 69.6363 1311.56 71.8516Z" fill="black"/>
<path d="M1311.56 80.3439C1309.87 81.9682 1307.58 82.8545 1305.07 82.8545C1302.63 82.8545 1300.34 81.9682 1298.57 80.3439C1293.92 75.9129 1286.32 75.9129 1281.67 80.3439C1279.97 81.9682 1277.61 82.8545 1275.17 82.8545C1272.73 82.8545 1270.45 81.9682 1268.67 80.3439C1264.02 75.9129 1256.42 75.9129 1251.77 80.3439C1250.07 81.9682 1247.71 82.8545 1245.27 82.8545C1242.84 82.8545 1240.55 81.9682 1238.78 80.3439C1234.12 75.9129 1226.52 75.9129 1221.87 80.3439C1220.17 81.9682 1217.81 82.8545 1215.37 82.8545C1212.94 82.8545 1210.65 81.9682 1208.88 80.3439C1206.52 78.1281 1203.49 77.0205 1200.39 77.0205V79.6789C1202.82 79.6789 1205.11 80.5652 1206.88 82.19C1209.17 84.3313 1212.13 85.5129 1215.37 85.5129C1218.55 85.5129 1221.57 84.3313 1223.86 82.19C1225.56 80.5652 1227.92 79.6789 1230.36 79.6789C1232.8 79.6789 1235.08 80.5652 1236.86 82.19C1239.14 84.3313 1242.1 85.5129 1245.35 85.5129C1248.52 85.5129 1251.55 84.3313 1253.84 82.19C1255.53 80.5652 1257.9 79.6789 1260.33 79.6789C1262.77 79.6789 1265.06 80.5652 1266.83 82.19C1269.12 84.3313 1272.07 85.5129 1275.32 85.5129C1278.49 85.5129 1281.52 84.3313 1283.81 82.19C1285.51 80.5652 1287.87 79.6789 1290.3 79.6789C1292.74 79.6789 1295.03 80.5652 1296.8 82.19C1299.09 84.3313 1302.04 85.5129 1305.29 85.5129C1308.46 85.5129 1311.49 84.3313 1313.78 82.19C1315.48 80.5652 1317.77 79.6789 1320.28 79.6789V77.0205C1316.95 77.0205 1313.93 78.1281 1311.56 80.3439Z" fill="black"/>
<path d="M1311.56 88.9098C1309.87 90.5346 1307.58 91.4209 1305.07 91.4209C1302.63 91.4209 1300.34 90.5346 1298.57 88.9098C1293.92 84.4793 1286.32 84.4793 1281.67 88.9098C1279.97 90.5346 1277.61 91.4209 1275.17 91.4209C1272.73 91.4209 1270.45 90.5346 1268.67 88.9098C1264.02 84.4793 1256.42 84.4793 1251.77 88.9098C1250.07 90.5346 1247.71 91.4209 1245.27 91.4209C1242.84 91.4209 1240.55 90.5346 1238.78 88.9098C1234.12 84.4793 1226.52 84.4793 1221.87 88.9098C1220.17 90.5346 1217.81 91.4209 1215.37 91.4209C1212.94 91.4209 1210.65 90.5346 1208.88 88.9098C1206.52 86.6946 1203.49 85.5869 1200.39 85.5869V88.2453C1202.82 88.2453 1205.11 89.1316 1206.88 90.7559C1209.17 92.8977 1212.13 94.0793 1215.37 94.0793C1218.55 94.0793 1221.57 92.8977 1223.86 90.7559C1225.56 89.1316 1227.92 88.2453 1230.36 88.2453C1232.8 88.2453 1235.08 89.1316 1236.86 90.7559C1239.14 92.8977 1242.1 94.0793 1245.35 94.0793C1248.52 94.0793 1251.55 92.8977 1253.84 90.7559C1255.53 89.1316 1257.9 88.2453 1260.33 88.2453C1262.77 88.2453 1265.06 89.1316 1266.83 90.7559C1269.12 92.8977 1272.07 94.0793 1275.32 94.0793C1278.49 94.0793 1281.52 92.8977 1283.81 90.7559C1285.51 89.1316 1287.87 88.2453 1290.3 88.2453C1292.74 88.2453 1295.03 89.1316 1296.8 90.7559C1299.09 92.8977 1302.04 94.0793 1305.29 94.0793C1308.46 94.0793 1311.49 92.8977 1313.78 90.7559C1315.48 89.1316 1317.77 88.2453 1320.28 88.2453V85.5869C1316.95 85.5869 1313.93 86.6946 1311.56 88.9098Z" fill="black"/>
<path d="M1311.56 97.4023C1309.87 99.027 1307.58 99.9128 1305.07 99.9128C1302.63 99.9128 1300.34 99.027 1298.57 97.4023C1293.92 92.9717 1286.32 92.9717 1281.67 97.4023C1279.97 99.027 1277.61 99.9128 1275.17 99.9128C1272.73 99.9128 1270.45 99.027 1268.67 97.4023C1264.02 92.9717 1256.42 92.9717 1251.77 97.4023C1250.07 99.027 1247.71 99.9128 1245.27 99.9128C1242.84 99.9128 1240.55 99.027 1238.78 97.4023C1234.12 92.9717 1226.52 92.9717 1221.87 97.4023C1220.17 99.027 1217.81 99.9128 1215.37 99.9128C1212.94 99.9128 1210.65 99.027 1208.88 97.4023C1206.52 95.187 1203.49 94.0793 1200.39 94.0793V96.7378C1202.82 96.7378 1205.11 97.6236 1206.88 99.2483C1209.17 101.39 1212.13 102.571 1215.37 102.571C1218.55 102.571 1221.57 101.39 1223.86 99.2483C1225.56 97.6236 1227.92 96.7378 1230.36 96.7378C1232.8 96.7378 1235.08 97.6236 1236.86 99.2483C1239.14 101.39 1242.1 102.571 1245.35 102.571C1248.52 102.571 1251.55 101.39 1253.84 99.2483C1255.53 97.6236 1257.9 96.7378 1260.33 96.7378C1262.77 96.7378 1265.06 97.6236 1266.83 99.2483C1269.12 101.39 1272.07 102.571 1275.32 102.571C1278.49 102.571 1281.52 101.39 1283.81 99.2483C1285.51 97.6236 1287.87 96.7378 1290.3 96.7378C1292.74 96.7378 1295.03 97.6236 1296.8 99.2483C1299.09 101.39 1302.04 102.571 1305.29 102.571C1308.46 102.571 1311.49 101.39 1313.78 99.2483C1315.48 97.6236 1317.77 96.7378 1320.28 96.7378V94.0793C1316.95 94.0793 1313.93 95.187 1311.56 97.4023Z" fill="black"/>
<path d="M1311.56 105.968C1309.87 107.593 1307.58 108.479 1305.07 108.479C1302.63 108.479 1300.34 107.593 1298.57 105.968C1293.92 101.538 1286.32 101.538 1281.67 105.968C1279.97 107.593 1277.61 108.479 1275.17 108.479C1272.73 108.479 1270.45 107.593 1268.67 105.968C1264.02 101.538 1256.42 101.538 1251.77 105.968C1250.07 107.593 1247.71 108.479 1245.27 108.479C1242.84 108.479 1240.55 107.593 1238.78 105.968C1234.12 101.538 1226.52 101.538 1221.87 105.968C1220.17 107.593 1217.81 108.479 1215.37 108.479C1212.94 108.479 1210.65 107.593 1208.88 105.968C1206.52 103.753 1203.49 102.645 1200.39 102.645V105.304C1202.82 105.304 1205.11 106.19 1206.88 107.815C1209.17 109.956 1212.13 111.138 1215.37 111.138C1218.55 111.138 1221.57 109.956 1223.86 107.815C1225.56 106.19 1227.92 105.304 1230.36 105.304C1232.8 105.304 1235.08 106.19 1236.86 107.815C1239.14 109.956 1242.1 111.138 1245.35 111.138C1248.52 111.138 1251.55 109.956 1253.84 107.815C1255.53 106.19 1257.9 105.304 1260.33 105.304C1262.77 105.304 1265.06 106.19 1266.83 107.815C1269.12 109.956 1272.07 111.138 1275.32 111.138C1278.49 111.138 1281.52 109.956 1283.81 107.815C1285.51 106.19 1287.87 105.304 1290.3 105.304C1292.74 105.304 1295.03 106.19 1296.8 107.815C1299.09 109.956 1302.04 111.138 1305.29 111.138C1308.46 111.138 1311.49 109.956 1313.78 107.815C1315.48 106.19 1317.77 105.304 1320.28 105.304V102.645C1316.95 102.645 1313.93 103.753 1311.56 105.968Z" fill="black"/>
<path fill-rule="evenodd" clip-rule="evenodd" d="M1421.19 18.4616C1410.93 8.19712 1397.57 2.21528 1383.17 1.40291L1438.24 56.492C1437.43 42.1657 1431.45 28.7261 1421.19 18.4616ZM1439.65 59.815L1379.85 0C1412.92 0 1439.65 26.8061 1439.65 59.815Z" fill="black"/>
<path d="M-17.6266 268.824C-2.93598 269.489 8.87588 281.304 9.54036 295.999C-5.15027 295.335 -16.9621 283.519 -17.6266 268.824ZM-18.9551 267.495C-18.9551 284.036 -5.59341 297.402 10.9428 297.402C10.9428 280.86 -2.49281 267.495 -18.9551 267.495ZM10.9433 208.935C26.6676 208.935 39.5127 221.784 39.5127 237.513C39.5127 253.316 26.7416 266.092 10.9433 266.092C-4.78056 266.092 -17.6256 253.242 -17.6256 237.513C-17.6256 221.784 -4.78056 208.935 10.9433 208.935ZM10.9433 207.605C-5.51898 207.605 -18.9546 220.972 -18.9546 237.513C-18.9546 254.054 -5.59292 267.421 10.9433 267.421C27.406 267.421 40.8416 254.054 40.8416 237.513C40.7677 221.046 27.406 207.605 10.9433 207.605ZM359.699 19.3527C359.33 34.4909 353.277 48.6689 342.499 59.3766C331.499 70.4535 316.809 76.5087 301.232 76.5087C285.656 76.5087 270.965 70.4535 259.966 59.3766C249.335 48.6694 243.282 34.4909 242.839 19.3527H359.699ZM361.102 18.0232H241.51C241.584 51.106 268.381 77.8382 301.306 77.8382C334.231 77.9121 360.955 51.106 361.102 18.0232ZM143.728 179.47L171.633 207.458L143.58 235.519L115.675 207.532L143.728 179.47ZM143.728 177.55L113.83 207.532L143.654 237.365L173.552 207.384L143.728 177.55ZM84.0059 179.544L111.911 207.532L83.858 235.593L55.9531 207.606L84.0059 179.544ZM84.0059 177.698L54.1076 207.68L83.932 237.513L113.83 207.532L84.0059 177.698ZM143.802 119.656L171.707 147.643L143.654 175.704L115.749 147.717L143.802 119.656ZM143.802 117.809L113.904 147.717L143.728 177.55L173.626 147.569L143.802 117.809Z" fill="black"/>
<path d="M45.0638 361.843V419H-0.000488281H-12.0011C-11.6953 406.463 -7.5412 394.584 -0.000488281 384.789C1.56385 382.757 3.27393 380.815 5.12564 378.976C15.8304 368.268 30.0039 362.213 45.0638 361.843ZM46.3922 360.514C27.6582 360.514 10.9468 369.154 -0.000488281 382.664C-8.33598 392.95 -13.3296 406.06 -13.3296 420.329H-0.000488281H46.3922V360.514ZM358.972 3.3964L414.043 58.4855C399.648 57.6732 386.212 51.7653 375.951 41.4268C365.764 31.1623 359.784 17.7962 358.972 3.3964ZM357.496 0.0734863C357.496 33.1562 384.293 59.8884 417.291 59.8884L357.496 0.0734863ZM110.19 76.2822V90.1649L102.143 98.0667V84.1835L110.19 76.2822ZM111.519 73.1067L100.815 83.6664V101.316L111.519 90.7559V73.1067ZM114.102 76.2822L122.149 84.1835V98.0667L114.102 90.1649V76.2822ZM112.7 73.1067V90.7559L123.404 101.316V83.6664L112.7 73.1067ZM130.491 73.2545L138.759 81.2298H124.881L116.612 73.2545H130.491ZM131.008 71.9251H113.29L124.29 82.6328H142.008L131.008 71.9251ZM138.759 61.3653L130.491 69.4145H116.612L124.881 61.4387H138.759V61.3653ZM142.008 60.0358H124.29L113.29 70.7435H131.008L142.008 60.0358ZM122.149 44.6023V58.485L114.103 66.3864V52.5037L122.149 44.6023ZM123.478 41.4268L112.774 51.9866V69.6359L123.478 59.0761V41.4268ZM102.143 44.6023L110.19 52.5037V66.3864L102.143 58.485V44.6023ZM100.815 41.4268V59.0761L111.519 69.6359V51.9866L100.815 41.4268ZM99.412 61.3653L107.68 69.3406H93.8014L85.5333 61.3653H99.412ZM99.9286 60.0358H82.2113L93.2108 70.7435H110.928L99.9286 60.0358ZM107.68 73.2545L99.412 81.2298H85.5333L93.8014 73.2545H107.68ZM110.928 71.9251H93.2108L82.2113 82.6328H99.9286L110.928 71.9251ZM88.5603 360.514C104.285 360.514 117.056 373.29 117.056 389.092C117.056 404.822 104.285 417.671 88.5603 417.671C72.836 417.671 60.0648 404.895 60.0648 389.092C60.0648 373.363 72.836 360.514 88.5603 360.514ZM88.5603 359.185C72.098 359.185 58.7359 372.551 58.7359 389.092C58.7359 405.56 72.098 419 88.5603 419C105.023 419 118.385 405.634 118.385 389.092C118.385 372.551 105.023 359.185 88.5603 359.185ZM28.6921 1.40295C44.4159 1.40295 57.261 14.252 57.261 29.9812C57.261 45.71 44.4159 58.559 28.6921 58.559C12.9677 58.559 0.122697 45.71 0.122697 29.9812C0.122697 14.2515 12.9677 1.40295 28.6921 1.40295ZM28.6921 0.0734863C12.1559 0.0734863 -1.20627 13.5135 -1.20627 29.9812C-1.20627 46.4484 12.1559 59.8884 28.6921 59.8884C45.2283 59.8884 58.59 46.5223 58.59 29.9807C58.59 13.4401 45.2283 0.0734863 28.6921 0.0734863ZM55.4139 121.106L0.121217 176.417V121.106H55.4139ZM58.5885 119.777H-1.20775V179.592L58.5885 119.777ZM55.4144 61.2914L0.121217 116.528V61.2914H55.4144ZM58.589 59.9624H-1.20726L-1.20775 119.777L58.589 59.9624ZM176.778 300.625C176.113 315.32 164.302 327.135 149.611 327.8C150.349 313.105 162.161 301.29 176.778 300.625ZM178.18 299.222C161.644 299.222 148.282 312.588 148.282 329.129C164.744 329.203 178.18 315.763 178.18 299.222ZM149.611 330.532C164.302 331.197 176.039 343.012 176.778 357.708C162.161 357.043 150.349 345.227 149.611 330.532ZM148.282 329.203C148.282 345.744 161.644 359.111 178.18 359.111C178.18 342.569 164.744 329.203 148.282 329.203Z" fill="black"/>
<path d="M1425.31 1292.21L1453.22 1320.19L1425.16 1348.26L1397.26 1320.27L1425.31 1292.21ZM1425.31 1290.29L1395.41 1320.27L1425.24 1350.1L1455.14 1320.12L1425.31 1290.29ZM1365.59 1292.28L1393.49 1320.27L1365.44 1348.33L1337.54 1320.34L1365.59 1292.28ZM1365.59 1290.43L1335.69 1320.42L1365.51 1350.25L1395.41 1320.27L1365.59 1290.43ZM1425.39 1232.39L1453.29 1260.38L1425.24 1288.44L1397.33 1260.45L1425.39 1232.39ZM1425.39 1230.55L1395.49 1260.45L1425.31 1290.29L1455.21 1260.31L1425.39 1230.55Z" fill="black"/>
<path d="M37.0183 643.468C37.6832 628.778 49.4985 616.966 64.1935 616.301C63.5291 630.992 51.7138 642.804 37.0183 643.468ZM35.6893 644.797C52.2304 644.797 65.5964 631.435 65.5964 614.899C49.0548 614.899 35.6893 628.335 35.6893 644.797ZM-22.8707 614.899C-22.8707 599.174 -10.0217 586.329 5.70755 586.329C21.5103 586.329 34.2858 599.1 34.2858 614.899C34.2858 630.622 21.4363 643.467 5.70755 643.467C-10.0217 643.467 -22.8707 630.622 -22.8707 614.899ZM-24.2002 614.899C-24.2002 631.361 -10.8341 644.796 5.70755 644.796C22.2487 644.796 35.6149 631.435 35.6149 614.899C35.6149 598.436 22.2487 585 5.70755 585C-10.7601 585.074 -24.2002 598.436 -24.2002 614.899Z" fill="black"/>
<path d="M1407.46 2576.39C1392.77 2575.72 1381.03 2563.91 1380.29 2549.21C1394.98 2549.88 1406.79 2561.69 1407.46 2576.39ZM1408.86 2577.72C1408.86 2561.18 1395.5 2547.81 1378.96 2547.81C1378.96 2564.35 1392.33 2577.72 1408.86 2577.72ZM1381.7 2739.82C1382.07 2724.68 1388.04 2710.5 1398.82 2699.79C1409.53 2689.09 1423.7 2683.03 1438.83 2682.66C1438.46 2697.8 1432.49 2711.98 1421.71 2722.69C1410.93 2733.39 1396.83 2739.45 1381.7 2739.82ZM1380.37 2741.15C1413.37 2741.15 1440.16 2714.34 1440.16 2681.33C1407.09 2681.33 1380.37 2708.06 1380.37 2741.15ZM1438.76 2679.93C1423.63 2679.56 1409.53 2673.5 1398.75 2662.8C1388.04 2652.09 1381.99 2637.91 1381.62 2622.77C1396.76 2623.14 1410.86 2629.2 1421.63 2639.91C1432.41 2650.69 1438.46 2664.86 1438.76 2679.93ZM1440.09 2681.33C1440.09 2648.25 1413.29 2621.52 1380.29 2621.52C1380.37 2654.53 1407.09 2681.33 1440.09 2681.33Z" fill="black"/>
<path d="M1.40287 3074.41C1.77208 3059.27 7.75147 3045.09 18.5296 3034.39C29.2338 3023.68 43.4079 3017.62 58.5412 3017.25C58.1725 3032.39 52.1926 3046.57 41.4144 3057.28C30.6363 3068.06 16.4627 3074.11 1.40287 3074.41ZM-4.79622e-05 3075.81C32.9984 3075.81 59.7962 3049.01 59.7962 3016C26.7977 3015.92 -4.50701e-05 3042.73 -4.79622e-05 3075.81ZM58.4672 3134.3C43.3334 3133.93 29.2333 3127.87 18.4552 3117.17C7.75097 3106.46 1.69764 3092.28 1.32843 3077.14C16.4622 3077.51 30.5623 3083.57 41.3405 3094.27C52.1182 3104.98 58.098 3119.16 58.4672 3134.3ZM59.7957 3135.63C59.7957 3102.54 32.9984 3075.81 -4.79622e-05 3075.81C-5.0848e-05 3108.82 26.7972 3135.63 59.7957 3135.63ZM44.8842 3224.02C37.3545 3224.02 31.3007 3217.89 31.3007 3210.43C31.3007 3202.9 37.428 3196.85 44.8842 3196.85C52.4139 3196.85 58.4677 3202.97 58.4677 3210.43C58.4677 3217.89 52.4139 3224.02 44.8842 3224.02ZM44.8842 3225.35C53.1523 3225.35 59.8701 3218.63 59.8701 3210.36C59.8701 3202.09 53.1523 3195.37 44.8842 3195.37C36.6161 3195.37 29.8983 3202.09 29.8983 3210.36C29.9722 3218.63 36.6161 3225.35 44.8842 3225.35Z" fill="black"/>
<path d="M1.40291 4231.06C2.06789 4216.37 13.8832 4204.63 28.5783 4203.89C27.8398 4218.58 16.0245 4230.39 1.40291 4231.06ZM-1.30688e-06 4232.46C16.5416 4232.46 29.9077 4219.1 29.9077 4202.56C13.3661 4202.56 -2.0297e-06 4215.92 -1.30688e-06 4232.46ZM1.40291 4233.79C16.0985 4234.45 27.9138 4246.26 28.5783 4260.95C13.8832 4260.29 2.06789 4248.48 1.40291 4233.79ZM-1.30688e-06 4232.46C-5.84057e-07 4248.99 13.3661 4262.36 29.9077 4262.36C29.9077 4245.82 16.5416 4232.46 -1.30688e-06 4232.46Z" fill="black"/>
<path d="M1323.58 4379.28L1438.67 4264.16L1438.67 4379.28L1323.58 4379.28ZM1320.41 4380.61L1380.2 4380.61L1440 4380.61L1440 4260.91L1320.41 4380.61ZM1351.63 4409.19C1352.3 4394.49 1364.11 4382.61 1378.8 4381.94L1378.8 4409.19L1351.63 4409.19ZM1350.31 4410.52L1380.13 4410.52L1380.13 4380.61C1363.67 4380.61 1350.31 4393.98 1350.31 4410.52Z" fill="black"/>
<path d="M58.3933 4163.19C57.7288 4177.88 45.917 4189.77 31.2263 4190.43V4163.19H58.3933ZM59.7217 4161.86H29.8239V4191.76C46.3601 4191.76 59.7217 4178.4 59.7217 4161.86ZM28.4954 4133.2C27.8309 4147.9 16.0196 4159.79 1.32896 4160.45V4133.2H28.4954ZM29.8244 4131.95H0V4161.86C16.4623 4161.86 29.8244 4148.42 29.8244 4131.95Z" fill="black"/>
</g>
</svg>
